<svg xmlns="http://www.w3.org/2000/svg" xmlns:xlink="http://www.w3.org/1999/xlink" width="100%" height="100%" version="1.1" viewBox="0 0 500 568" xml:space="preserve" style="fill-rule:evenodd;clip-rule:evenodd;stroke-linecap:round;stroke-linejoin:round;stroke-miterlimit:1.5"><g><path d="M794,893L1112.96,91.025L2137,533L1433,1180L794,893Z" transform="matrix(0.228829,0,0,0.228829,0,1.30074e-14)" style="fill:#fbc8ff"/></g><g><path d="M2137,537L2139,1265L1437,1639L1435,1177L2137,537Z" transform="matrix(0.228829,0,0,0.228829,0,0)" style="fill:#fabdff"/></g><g><path d="M1118,94L2137,537L2141,1271L1118.7,827.696L1118,94Z" transform="matrix(0.228829,0,0,0.228829,0,0)" style="fill:#a9d4ff"/></g><g><path d="M1116.43,831.476L2140,1269.21L1438.26,1632.75L791.467,1358.91L1116.43,831.476Z" transform="matrix(0.228829,0,0,0.228829,0,0)" style="fill:#f688ff;fill-opacity:.701961"/></g><g><path d="M1435,1177L1440,1636L790,1359L794,893L1435,1177Z" transform="matrix(0.228829,0,0,0.228829,0,1.30074e-14)" style="fill:#a6fbb6;fill-opacity:.498039"/></g><g><path d="M1808,158.717L924,2351" transform="matrix(0.253567,0,0,0.253567,-181.919,-73.1583)" style="fill:none;stroke:#929292;stroke-width:1.88px"/></g><g><path d="M2831.34,599L924,2351" transform="matrix(0.263021,0,0,0.263021,-190.655,-95.3853)" style="fill:none;stroke:#929292;stroke-width:1.81px"/></g><g><path d="M2831.34,1333L924,2351" transform="matrix(0.270819,0,0,0.270819,-197.86,-113.719)" style="fill:none;stroke:#929292;stroke-width:1.76px"/></g><g><path d="M1808,896L924,2351" transform="matrix(0.383111,0,0,0.383111,-301.618,-377.718)" style="fill:none;stroke:#929292;stroke-width:1.24px"/></g><g><path d="M1479,1237.24L670,852L670,1494L1479,1879.24L1479,1237.24Z" transform="matrix(0.182724,0,0,0.165128,58.3248,64.5264)" style="fill:none;stroke:#000;stroke-width:5.47px"/></g><g><path d="M1479,1237.24L670,852L670,1494L1479,1879.24L1479,1237.24Z" transform="matrix(0.289457,0,0,0.261584,60.7254,-201.55)" style="fill:none;stroke:#000;stroke-width:3.46px"/></g><g><path d="M670,1030.36L993,226.717" transform="matrix(0.228829,0,0,0.228829,27.4343,-30.5599)" style="fill:none;stroke:#000;stroke-width:4.17px"/></g><g><path d="M1316,1311L2016.34,667" transform="matrix(0.228829,0,0,0.228829,27.4343,-30.5599)" style="fill:none;stroke:#000;stroke-width:4.17px"/></g><g><path d="M1316,1771.64L2016.34,1401" transform="matrix(0.228829,0,0,0.228829,27.4343,-30.5599)" style="fill:none;stroke:#000;stroke-width:4.17px"/></g><g><path d="M670,1490L993,964" transform="matrix(0.228829,0,0,0.228829,27.4343,-30.5599)" style="fill:none;stroke:#000;stroke-width:4.17px"/></g><g><g transform="matrix(0.125222,0,0,0.14216,-53.3157,216.672) matrix(1.06285,0,0,1.06285,207.062,1284.72)"><ellipse cx="444.5" cy="895.5" rx="52.5" ry="50.5" style="stroke:#030303;stroke-width:3.35px"/></g><g><path d="M268.458,558.348C288.79,525.842 354.8,502 433,502C511.2,502 577.21,525.842 597.542,558.348C552.951,545.022 495.572,537 433,537C370.428,537 313.049,545.022 268.458,558.348Z" transform="matrix(0.125222,0,0,0.14216,-53.3157,216.672) matrix(1,0,0,1,246.5,1652.65)" style="stroke:#929292;stroke-width:3.56px"/></g><g><path d="M268.458,558.348C288.79,525.842 354.8,502 433,502C511.2,502 577.21,525.842 597.542,558.348C552.951,545.022 495.572,537 433,537C370.428,537 313.049,545.022 268.458,558.348Z" transform="matrix(0.125222,0,0,0.14216,-53.3157,216.672) matrix(1,0,0,-1,246.5,2820.35)" style="stroke:#929292;stroke-width:3.56px"/></g></g><g><text x="1932.37" y="2074.34" transform="matrix(0.451826,0.00669686,-0.00669686,0.451826,-703.233,-850.788)" style="font-family:'Arial-BoldMT','Arial',sans-serif;font-weight:700;font-size:101.279px;fill:#003bff">far</text></g><g><text x="1932.37" y="2074.34" transform="matrix(0.451826,0.00669686,-0.00669686,0.451826,-803.517,-741.628)" style="font-family:'Arial-BoldMT','Arial',sans-serif;font-weight:700;font-size:101.279px;fill:#2aaa4a">near</text></g><g><text x="1932.37" y="2074.34" transform="matrix(0.451826,0.00669686,-0.00669686,0.451826,-585.526,-533.656)" style="font-family:'Arial-BoldMT','Arial',sans-serif;font-weight:700;font-size:101.279px;fill:#ff0030">fov</text></g><g><path d="M212,957.03L212,908.97L594.049,908.97L594.049,864L672,933L594.049,1002L594.049,957.03L212,957.03Z" transform="matrix(0.137985,0.0581395,-0.0386589,0.0917509,118.911,120.502)" style="fill:#5ec27e"/></g><g><path d="M212,957.03L212,908.97L592.64,908.97L592.64,864L672,933L592.64,1002L592.64,957.03L212,957.03Z" transform="matrix(0.137985,0.0581395,-0.0393575,0.0934091,195.2,7.85882)" style="fill:#003bff"/></g><g><path d="M1057,1535C1138.34,1631.7 1161.96,1683.82 1099.06,1822" transform="matrix(0.147102,0,0,0.185936,91.5132,71.9773)" style="fill:none;stroke:#f02;stroke-width:42.65px"/></g><g><path d="M842.5,1602L873,1674L812,1674L842.5,1602Z" transform="matrix(-0.223056,-0.0984935,0.0924323,-0.20933,289.707,836.839)" style="fill:#ff0030"/></g><g><path d="M842.5,1602L873,1674L812,1674L842.5,1602Z" transform="matrix(0.197704,-0.16228,0.145183,0.176874,-159.117,202.268)" style="fill:#ff0030"/></g></svg>