<svg xmlns="http://www.w3.org/2000/svg" xmlns:xlink="http://www.w3.org/1999/xlink" width="100%" height="100%" version="1.1" viewBox="0 0 500 400" xml:space="preserve" style="fill-rule:evenodd;clip-rule:evenodd;stroke-linecap:round;stroke-linejoin:round;stroke-miterlimit:1.5"><g transform="matrix(1,0,0,1,-68.5877,-4.67287)"><rect width="25.333" height="25.333" x="177.014" y="150.396" style="stroke:#000;stroke-width:1px"/></g><g transform="matrix(1,0,0,1,-68.5877,96.6592)"><rect width="25.333" height="25.333" x="177.014" y="150.396" style="fill:#009200;stroke:#000;stroke-width:1px"/></g><g transform="matrix(1,0,0,1,-68.5877,45.9931)"><rect width="25.333" height="25.333" x="177.014" y="150.396" style="fill:#004900;stroke:#000;stroke-width:1px"/></g><g transform="matrix(1,0,0,1,-68.5877,147.325)"><rect width="25.333" height="25.333" x="177.014" y="150.396" style="fill:#00db00;stroke:#000;stroke-width:1px"/></g><g transform="matrix(1,0,0,1,-68.5877,20.6601)"><rect width="25.333" height="25.333" x="177.014" y="150.396" style="fill:#002400;stroke:#000;stroke-width:1px"/></g><g transform="matrix(1,0,0,1,-68.5877,121.992)"><rect width="25.333" height="25.333" x="177.014" y="150.396" style="fill:#00b600;stroke:#000;stroke-width:1px"/></g><g transform="matrix(1,0,0,1,-68.5877,71.3262)"><rect width="25.333" height="25.333" x="177.014" y="150.396" style="fill:#006d00;stroke:#000;stroke-width:1px"/></g><g transform="matrix(1,0,0,1,-68.5877,172.658)"><rect width="25.333" height="25.333" x="177.014" y="150.396" style="fill:#0f0;stroke:#000;stroke-width:1px"/></g><g transform="matrix(1,0,0,1,32.7444,-4.67287)"><rect width="25.333" height="25.333" x="177.014" y="150.396" style="fill:#910000;stroke:#000;stroke-width:1px"/></g><g transform="matrix(1,0,0,1,32.7444,96.6592)"><rect width="25.333" height="25.333" x="177.014" y="150.396" style="fill:#ebebeb;stroke:#000;stroke-width:1px"/></g><g transform="matrix(1,0,0,1,32.7444,45.9931)"><rect width="25.333" height="25.333" x="177.014" y="150.396" style="fill:#ebebeb;stroke:#000;stroke-width:1px"/></g><g transform="matrix(1,0,0,1,32.7444,147.325)"><rect width="25.333" height="25.333" x="177.014" y="150.396" style="fill:#ebebeb;stroke:#000;stroke-width:1px"/></g><g transform="matrix(1,0,0,1,32.7444,20.6601)"><rect width="25.333" height="25.333" x="177.014" y="150.396" style="fill:#ebebeb;stroke:#000;stroke-width:1px"/></g><g transform="matrix(1,0,0,1,32.7444,121.992)"><rect width="25.333" height="25.333" x="177.014" y="150.396" style="fill:#ebebeb;stroke:#000;stroke-width:1px"/></g><g transform="matrix(1,0,0,1,32.7444,71.3262)"><rect width="25.333" height="25.333" x="177.014" y="150.396" style="fill:#ebebeb;stroke:#000;stroke-width:1px"/></g><g transform="matrix(1,0,0,1,32.7444,172.658)"><rect width="25.333" height="25.333" x="177.014" y="150.396" style="fill:#ebebeb;stroke:#000;stroke-width:1px"/></g><g transform="matrix(1,0,0,1,-17.9217,-4.67287)"><rect width="25.333" height="25.333" x="177.014" y="150.396" style="fill:#490000;stroke:#000;stroke-width:1px"/></g><g transform="matrix(1,0,0,1,-17.9217,96.6592)"><rect width="25.333" height="25.333" x="177.014" y="150.396" style="fill:#ebebeb;stroke:#000;stroke-width:1px"/></g><g transform="matrix(1,0,0,1,-17.9217,45.9931)"><rect width="25.333" height="25.333" x="177.014" y="150.396" style="fill:#ebebeb;stroke:#000;stroke-width:1px"/></g><g transform="matrix(1,0,0,1,-17.9217,147.325)"><rect width="25.333" height="25.333" x="177.014" y="150.396" style="fill:#ebebeb;stroke:#000;stroke-width:1px"/></g><g transform="matrix(1,0,0,1,-17.9217,20.6601)"><rect width="25.333" height="25.333" x="177.014" y="150.396" style="fill:#ebebeb;stroke:#000;stroke-width:1px"/></g><g transform="matrix(1,0,0,1,-17.9217,121.992)"><rect width="25.333" height="25.333" x="177.014" y="150.396" style="fill:#ebebeb;stroke:#000;stroke-width:1px"/></g><g transform="matrix(1,0,0,1,-17.9217,71.3262)"><rect width="25.333" height="25.333" x="177.014" y="150.396" style="fill:#ebebeb;stroke:#000;stroke-width:1px"/></g><g transform="matrix(1,0,0,1,-17.9217,172.658)"><rect width="25.333" height="25.333" x="177.014" y="150.396" style="fill:#ebebeb;stroke:#000;stroke-width:1px"/></g><g transform="matrix(1,0,0,1,83.4104,-4.67287)"><rect width="25.333" height="25.333" x="177.014" y="150.396" style="fill:#da0000;stroke:#000;stroke-width:1px"/></g><g transform="matrix(1,0,0,1,83.4104,96.6592)"><rect width="25.333" height="25.333" x="177.014" y="150.396" style="fill:#ebebeb;stroke:#000;stroke-width:1px"/></g><g transform="matrix(1,0,0,1,83.4104,45.9931)"><rect width="25.333" height="25.333" x="177.014" y="150.396" style="fill:#ebebeb;stroke:#000;stroke-width:1px"/></g><g transform="matrix(1,0,0,1,83.4104,147.325)"><rect width="25.333" height="25.333" x="177.014" y="150.396" style="fill:#ebebeb;stroke:#000;stroke-width:1px"/></g><g transform="matrix(1,0,0,1,83.4104,20.6601)"><rect width="25.333" height="25.333" x="177.014" y="150.396" style="fill:#ebebeb;stroke:#000;stroke-width:1px"/></g><g transform="matrix(1,0,0,1,83.4104,121.992)"><rect width="25.333" height="25.333" x="177.014" y="150.396" style="fill:#ebebeb;stroke:#000;stroke-width:1px"/></g><g transform="matrix(1,0,0,1,83.4104,71.3262)"><rect width="25.333" height="25.333" x="177.014" y="150.396" style="fill:#ebebeb;stroke:#000;stroke-width:1px"/></g><g transform="matrix(1,0,0,1,83.4104,172.658)"><rect width="25.333" height="25.333" x="177.014" y="150.396" style="fill:#ebebeb;stroke:#000;stroke-width:1px"/></g><g transform="matrix(1,0,0,1,-43.2547,-4.67287)"><rect width="25.333" height="25.333" x="177.014" y="150.396" style="fill:#240000;stroke:#000;stroke-width:1px"/></g><g transform="matrix(1,0,0,1,-43.2547,96.6592)"><rect width="25.333" height="25.333" x="177.014" y="150.396" style="fill:#ebebeb;stroke:#000;stroke-width:1px"/></g><g transform="matrix(1,0,0,1,-43.2547,45.9931)"><rect width="25.333" height="25.333" x="177.014" y="150.396" style="fill:#ebebeb;stroke:#000;stroke-width:1px"/></g><g transform="matrix(1,0,0,1,-43.2547,147.325)"><rect width="25.333" height="25.333" x="177.014" y="150.396" style="fill:#ebebeb;stroke:#000;stroke-width:1px"/></g><g transform="matrix(1,0,0,1,-43.2547,20.6601)"><rect width="25.333" height="25.333" x="177.014" y="150.396" style="fill:#ebebeb;stroke:#000;stroke-width:1px"/></g><g transform="matrix(1,0,0,1,-43.2547,121.992)"><rect width="25.333" height="25.333" x="177.014" y="150.396" style="fill:#ebebeb;stroke:#000;stroke-width:1px"/></g><g transform="matrix(1,0,0,1,-43.2547,71.3262)"><rect width="25.333" height="25.333" x="177.014" y="150.396" style="fill:#ebebeb;stroke:#000;stroke-width:1px"/></g><g transform="matrix(1,0,0,1,-43.2547,172.658)"><rect width="25.333" height="25.333" x="177.014" y="150.396" style="fill:#ebebeb;stroke:#000;stroke-width:1px"/></g><g transform="matrix(1,0,0,1,58.0774,-4.67287)"><rect width="25.333" height="25.333" x="177.014" y="150.396" style="fill:#b60000;stroke:#000;stroke-width:1px"/></g><g transform="matrix(1,0,0,1,58.0774,96.6592)"><rect width="25.333" height="25.333" x="177.014" y="150.396" style="fill:#ebebeb;stroke:#000;stroke-width:1px"/></g><g transform="matrix(1,0,0,1,58.0774,45.9931)"><rect width="25.333" height="25.333" x="177.014" y="150.396" style="fill:#ebebeb;stroke:#000;stroke-width:1px"/></g><g transform="matrix(1,0,0,1,58.0774,147.325)"><rect width="25.333" height="25.333" x="177.014" y="150.396" style="fill:#ebebeb;stroke:#000;stroke-width:1px"/></g><g transform="matrix(1,0,0,1,58.0774,20.6601)"><rect width="25.333" height="25.333" x="177.014" y="150.396" style="fill:#ebebeb;stroke:#000;stroke-width:1px"/></g><g transform="matrix(1,0,0,1,58.0774,121.992)"><rect width="25.333" height="25.333" x="177.014" y="150.396" style="fill:#ebebeb;stroke:#000;stroke-width:1px"/></g><g transform="matrix(1,0,0,1,58.0774,71.3262)"><rect width="25.333" height="25.333" x="177.014" y="150.396" style="fill:#ebebeb;stroke:#000;stroke-width:1px"/></g><g transform="matrix(1,0,0,1,58.0774,172.658)"><rect width="25.333" height="25.333" x="177.014" y="150.396" style="fill:#ebebeb;stroke:#000;stroke-width:1px"/></g><g transform="matrix(1,0,0,1,7.41134,-4.67287)"><rect width="25.333" height="25.333" x="177.014" y="150.396" style="fill:#6d0000;stroke:#000;stroke-width:1px"/></g><g transform="matrix(1,0,0,1,7.41134,96.6592)"><rect width="25.333" height="25.333" x="177.014" y="150.396" style="fill:#ebebeb;stroke:#000;stroke-width:1px"/></g><g transform="matrix(1,0,0,1,7.41134,45.9931)"><rect width="25.333" height="25.333" x="177.014" y="150.396" style="fill:#ebebeb;stroke:#000;stroke-width:1px"/></g><g transform="matrix(1,0,0,1,7.41134,147.325)"><rect width="25.333" height="25.333" x="177.014" y="150.396" style="fill:#ebebeb;stroke:#000;stroke-width:1px"/></g><g transform="matrix(1,0,0,1,7.41134,20.6601)"><rect width="25.333" height="25.333" x="177.014" y="150.396" style="fill:#ebebeb;stroke:#000;stroke-width:1px"/></g><g transform="matrix(1,0,0,1,7.41134,121.992)"><rect width="25.333" height="25.333" x="177.014" y="150.396" style="fill:#ebebeb;stroke:#000;stroke-width:1px"/></g><g transform="matrix(1,0,0,1,7.41134,71.3262)"><rect width="25.333" height="25.333" x="177.014" y="150.396" style="fill:#ebebeb;stroke:#000;stroke-width:1px"/></g><g transform="matrix(1,0,0,1,7.41134,172.658)"><rect width="25.333" height="25.333" x="177.014" y="150.396" style="fill:#ebebeb;stroke:#000;stroke-width:1px"/></g><g transform="matrix(1,0,0,1,108.743,-4.67287)"><rect width="25.333" height="25.333" x="177.014" y="150.396" style="fill:#f20d0d;stroke:#000;stroke-width:1px"/></g><g transform="matrix(1,0,0,1,108.743,96.6592)"><rect width="25.333" height="25.333" x="177.014" y="150.396" style="fill:#ebebeb;stroke:#000;stroke-width:1px"/></g><g transform="matrix(1,0,0,1,108.743,45.9931)"><rect width="25.333" height="25.333" x="177.014" y="150.396" style="fill:#ebebeb;stroke:#000;stroke-width:1px"/></g><g transform="matrix(1,0,0,1,108.743,147.325)"><rect width="25.333" height="25.333" x="177.014" y="150.396" style="fill:#ebebeb;stroke:#000;stroke-width:1px"/></g><g transform="matrix(1,0,0,1,108.743,20.6601)"><rect width="25.333" height="25.333" x="177.014" y="150.396" style="fill:#ebebeb;stroke:#000;stroke-width:1px"/></g><g transform="matrix(1,0,0,1,108.743,121.992)"><rect width="25.333" height="25.333" x="177.014" y="150.396" style="fill:#ebebeb;stroke:#000;stroke-width:1px"/></g><g transform="matrix(1,0,0,1,108.743,71.3262)"><rect width="25.333" height="25.333" x="177.014" y="150.396" style="fill:#ebebeb;stroke:#000;stroke-width:1px"/></g><g transform="matrix(1,0,0,1,108.743,172.658)"><rect width="25.333" height="25.333" x="177.014" y="150.396" style="fill:#ebebeb;stroke:#000;stroke-width:1px"/></g><g><path d="M227.68,158.076L202.347,158.076L177.014,175.729L202.347,175.729L227.68,158.076Z" transform="matrix(1,0,0.384374,0.665756,-136.736,28.6404)" style="stroke:#000;stroke-width:.92px"/></g><g><path d="M227.68,158.076L202.347,158.076L177.014,175.729L202.347,175.729L227.68,158.076Z" transform="matrix(1,0,0.384374,0.665756,-62.5458,-18.37)" style="fill:#000092;stroke:#000;stroke-width:.92px"/></g><g><path d="M227.68,158.076L202.347,158.076L177.014,175.729L202.347,175.729L227.68,158.076Z" transform="matrix(1,0,0.384374,0.665756,-99.6411,5.13517)" style="fill:#000049;stroke:#000;stroke-width:.92px"/></g><g><path d="M227.68,158.076L202.347,158.076L177.014,175.729L202.347,175.729L227.68,158.076Z" transform="matrix(1,0,0.384374,0.665756,-25.4505,-41.8752)" style="fill:#0000db;stroke:#000;stroke-width:.92px"/></g><g><path d="M227.68,158.076L202.347,158.076L177.014,175.729L202.347,175.729L227.68,158.076Z" transform="matrix(1,0,0.384374,0.665756,-118.189,16.8878)" style="fill:#000024;stroke:#000;stroke-width:.92px"/></g><g><path d="M227.68,158.076L202.347,158.076L177.014,175.729L202.347,175.729L227.68,158.076Z" transform="matrix(1,0,0.384374,0.665756,-43.9981,-30.1226)" style="fill:#0000b6;stroke:#000;stroke-width:.92px"/></g><g><path d="M227.68,158.076L202.347,158.076L177.014,175.729L202.347,175.729L227.68,158.076Z" transform="matrix(1,0,0.384374,0.665756,-81.0934,-6.61743)" style="fill:#00006d;stroke:#000;stroke-width:.92px"/></g><g><path d="M227.68,158.076L202.347,158.076L177.014,175.729L202.347,175.729L227.68,158.076Z" transform="matrix(1,0,0.384374,0.665756,-6.90283,-53.6278)" style="fill:#0d28f2;stroke:#000;stroke-width:.92px"/></g><g><path d="M227.68,158.076L202.347,158.076L177.014,175.729L202.347,175.729L227.68,158.076Z" transform="matrix(1,0,0.384374,0.665756,-35.4043,28.6404)" style="fill:#910000;stroke:#000;stroke-width:.92px"/></g><g><path d="M227.68,158.076L202.347,158.076L177.014,175.729L202.347,175.729L227.68,158.076Z" transform="matrix(1,0,0.384374,0.665756,38.7863,-18.37)" style="fill:#ebebeb;stroke:#000;stroke-width:.92px"/></g><g><path d="M227.68,158.076L202.347,158.076L177.014,175.729L202.347,175.729L227.68,158.076Z" transform="matrix(1,0,0.384374,0.665756,1.69099,5.13517)" style="fill:#ebebeb;stroke:#000;stroke-width:.92px"/></g><g><path d="M227.68,158.076L202.347,158.076L177.014,175.729L202.347,175.729L227.68,158.076Z" transform="matrix(1,0,0.384374,0.665756,75.8816,-41.8752)" style="fill:#ebebeb;stroke:#000;stroke-width:.92px"/></g><g><path d="M227.68,158.076L202.347,158.076L177.014,175.729L202.347,175.729L227.68,158.076Z" transform="matrix(1,0,0.384374,0.665756,-16.8567,16.8878)" style="fill:#ebebeb;stroke:#000;stroke-width:.92px"/></g><g><path d="M227.68,158.076L202.347,158.076L177.014,175.729L202.347,175.729L227.68,158.076Z" transform="matrix(1,0,0.384374,0.665756,57.3339,-30.1226)" style="fill:#ebebeb;stroke:#000;stroke-width:.92px"/></g><g><path d="M227.68,158.076L202.347,158.076L177.014,175.729L202.347,175.729L227.68,158.076Z" transform="matrix(1,0,0.384374,0.665756,20.2386,-6.61743)" style="fill:#ebebeb;stroke:#000;stroke-width:.92px"/></g><g><path d="M227.68,158.076L202.347,158.076L177.014,175.729L202.347,175.729L227.68,158.076Z" transform="matrix(1,0,0.384374,0.665756,94.4292,-53.6278)" style="fill:#ebebeb;stroke:#000;stroke-width:.92px"/></g><g><path d="M227.68,158.076L202.347,158.076L177.014,175.729L202.347,175.729L227.68,158.076Z" transform="matrix(1,0,0.384374,0.665756,-86.0703,28.6404)" style="fill:#490000;stroke:#000;stroke-width:.92px"/></g><g><path d="M227.68,158.076L202.347,158.076L177.014,175.729L202.347,175.729L227.68,158.076Z" transform="matrix(1,0,0.384374,0.665756,-11.8797,-18.37)" style="fill:#ebebeb;stroke:#000;stroke-width:.92px"/></g><g><path d="M227.68,158.076L202.347,158.076L177.014,175.729L202.347,175.729L227.68,158.076Z" transform="matrix(1,0,0.384374,0.665756,-48.975,5.13517)" style="fill:#ebebeb;stroke:#000;stroke-width:.92px"/></g><g><path d="M227.68,158.076L202.347,158.076L177.014,175.729L202.347,175.729L227.68,158.076Z" transform="matrix(1,0,0.384374,0.665756,25.2155,-41.8752)" style="fill:#ebebeb;stroke:#000;stroke-width:.92px"/></g><g><path d="M227.68,158.076L202.347,158.076L177.014,175.729L202.347,175.729L227.68,158.076Z" transform="matrix(1,0,0.384374,0.665756,-67.5227,16.8878)" style="fill:#ebebeb;stroke:#000;stroke-width:.92px"/></g><g><path d="M227.68,158.076L202.347,158.076L177.014,175.729L202.347,175.729L227.68,158.076Z" transform="matrix(1,0,0.384374,0.665756,6.6679,-30.1226)" style="fill:#ebebeb;stroke:#000;stroke-width:.92px"/></g><g><path d="M227.68,158.076L202.347,158.076L177.014,175.729L202.347,175.729L227.68,158.076Z" transform="matrix(1,0,0.384374,0.665756,-30.4274,-6.61743)" style="fill:#ebebeb;stroke:#000;stroke-width:.92px"/></g><g><path d="M227.68,158.076L202.347,158.076L177.014,175.729L202.347,175.729L227.68,158.076Z" transform="matrix(1,0,0.384374,0.665756,43.7632,-53.6278)" style="fill:#ebebeb;stroke:#000;stroke-width:.92px"/></g><g><path d="M227.68,158.076L202.347,158.076L177.014,175.729L202.347,175.729L227.68,158.076Z" transform="matrix(1,0,0.384374,0.665756,15.2617,28.6404)" style="fill:#da0000;stroke:#000;stroke-width:.92px"/></g><g><path d="M227.68,158.076L202.347,158.076L177.014,175.729L202.347,175.729L227.68,158.076Z" transform="matrix(1,0,0.384374,0.665756,89.4523,-18.37)" style="fill:#ebebeb;stroke:#000;stroke-width:.92px"/></g><g><path d="M227.68,158.076L202.347,158.076L177.014,175.729L202.347,175.729L227.68,158.076Z" transform="matrix(1,0,0.384374,0.665756,52.357,5.13517)" style="fill:#ebebeb;stroke:#000;stroke-width:.92px"/></g><g><path d="M227.68,158.076L202.347,158.076L177.014,175.729L202.347,175.729L227.68,158.076Z" transform="matrix(1,0,0.384374,0.665756,126.548,-41.8752)" style="fill:#ebebeb;stroke:#000;stroke-width:.92px"/></g><g><path d="M227.68,158.076L202.347,158.076L177.014,175.729L202.347,175.729L227.68,158.076Z" transform="matrix(1,0,0.384374,0.665756,33.8094,16.8878)" style="fill:#ebebeb;stroke:#000;stroke-width:.92px"/></g><g><path d="M227.68,158.076L202.347,158.076L177.014,175.729L202.347,175.729L227.68,158.076Z" transform="matrix(1,0,0.384374,0.665756,108,-30.1226)" style="fill:#ebebeb;stroke:#000;stroke-width:.92px"/></g><g><path d="M227.68,158.076L202.347,158.076L177.014,175.729L202.347,175.729L227.68,158.076Z" transform="matrix(1,0,0.384374,0.665756,70.9047,-6.61743)" style="fill:#ebebeb;stroke:#000;stroke-width:.92px"/></g><g><path d="M227.68,158.076L202.347,158.076L177.014,175.729L202.347,175.729L227.68,158.076Z" transform="matrix(1,0,0.384374,0.665756,145.095,-53.6278)" style="fill:#ebebeb;stroke:#000;stroke-width:.92px"/></g><g><path d="M227.68,158.076L202.347,158.076L177.014,175.729L202.347,175.729L227.68,158.076Z" transform="matrix(1,0,0.384374,0.665756,-111.403,28.6404)" style="fill:#240000;stroke:#000;stroke-width:.92px"/></g><g><path d="M227.68,158.076L202.347,158.076L177.014,175.729L202.347,175.729L227.68,158.076Z" transform="matrix(1,0,0.384374,0.665756,-37.2128,-18.37)" style="fill:#ebebeb;stroke:#000;stroke-width:.92px"/></g><g><path d="M227.68,158.076L202.347,158.076L177.014,175.729L202.347,175.729L227.68,158.076Z" transform="matrix(1,0,0.384374,0.665756,-74.308,5.13517)" style="fill:#ebebeb;stroke:#000;stroke-width:.92px"/></g><g><path d="M227.68,158.076L202.347,158.076L177.014,175.729L202.347,175.729L227.68,158.076Z" transform="matrix(1,0,0.384374,0.665756,-0.117462,-41.8752)" style="fill:#ebebeb;stroke:#000;stroke-width:.92px"/></g><g><path d="M227.68,158.076L202.347,158.076L177.014,175.729L202.347,175.729L227.68,158.076Z" transform="matrix(1,0,0.384374,0.665756,-92.8557,16.8878)" style="fill:#ebebeb;stroke:#000;stroke-width:.92px"/></g><g><path d="M227.68,158.076L202.347,158.076L177.014,175.729L202.347,175.729L227.68,158.076Z" transform="matrix(1,0,0.384374,0.665756,-18.6651,-30.1226)" style="fill:#ebebeb;stroke:#000;stroke-width:.92px"/></g><g><path d="M227.68,158.076L202.347,158.076L177.014,175.729L202.347,175.729L227.68,158.076Z" transform="matrix(1,0,0.384374,0.665756,-55.7604,-6.61743)" style="fill:#ebebeb;stroke:#000;stroke-width:.92px"/></g><g><path d="M227.68,158.076L202.347,158.076L177.014,175.729L202.347,175.729L227.68,158.076Z" transform="matrix(1,0,0.384374,0.665756,18.4302,-53.6278)" style="fill:#ebebeb;stroke:#000;stroke-width:.92px"/></g><g><path d="M227.68,158.076L202.347,158.076L177.014,175.729L202.347,175.729L227.68,158.076Z" transform="matrix(1,0,0.384374,0.665756,-10.0713,28.6404)" style="fill:#b60000;stroke:#000;stroke-width:.92px"/></g><g><path d="M227.68,158.076L202.347,158.076L177.014,175.729L202.347,175.729L227.68,158.076Z" transform="matrix(1,0,0.384374,0.665756,64.1193,-18.37)" style="fill:#ebebeb;stroke:#000;stroke-width:.92px"/></g><g><path d="M227.68,158.076L202.347,158.076L177.014,175.729L202.347,175.729L227.68,158.076Z" transform="matrix(1,0,0.384374,0.665756,27.024,5.13517)" style="fill:#ebebeb;stroke:#000;stroke-width:.92px"/></g><g><path d="M227.68,158.076L202.347,158.076L177.014,175.729L202.347,175.729L227.68,158.076Z" transform="matrix(1,0,0.384374,0.665756,101.215,-41.8752)" style="fill:#ebebeb;stroke:#000;stroke-width:.92px"/></g><g><path d="M227.68,158.076L202.347,158.076L177.014,175.729L202.347,175.729L227.68,158.076Z" transform="matrix(1,0,0.384374,0.665756,8.47636,16.8878)" style="fill:#ebebeb;stroke:#000;stroke-width:.92px"/></g><g><path d="M227.68,158.076L202.347,158.076L177.014,175.729L202.347,175.729L227.68,158.076Z" transform="matrix(1,0,0.384374,0.665756,82.6669,-30.1226)" style="fill:#ebebeb;stroke:#000;stroke-width:.92px"/></g><g><path d="M227.68,158.076L202.347,158.076L177.014,175.729L202.347,175.729L227.68,158.076Z" transform="matrix(1,0,0.384374,0.665756,45.5716,-6.61743)" style="fill:#ebebeb;stroke:#000;stroke-width:.92px"/></g><g><path d="M227.68,158.076L202.347,158.076L177.014,175.729L202.347,175.729L227.68,158.076Z" transform="matrix(1,0,0.384374,0.665756,119.762,-53.6278)" style="fill:#ebebeb;stroke:#000;stroke-width:.92px"/></g><g><path d="M227.68,158.076L202.347,158.076L177.014,175.729L202.347,175.729L227.68,158.076Z" transform="matrix(1,0,0.384374,0.665756,-60.7373,28.6404)" style="fill:#6d0000;stroke:#000;stroke-width:.92px"/></g><g><path d="M227.68,158.076L202.347,158.076L177.014,175.729L202.347,175.729L227.68,158.076Z" transform="matrix(1,0,0.384374,0.665756,13.4533,-18.37)" style="fill:#ebebeb;stroke:#000;stroke-width:.92px"/></g><g><path d="M227.68,158.076L202.347,158.076L177.014,175.729L202.347,175.729L227.68,158.076Z" transform="matrix(1,0,0.384374,0.665756,-23.642,5.13517)" style="fill:#ebebeb;stroke:#000;stroke-width:.92px"/></g><g><path d="M227.68,158.076L202.347,158.076L177.014,175.729L202.347,175.729L227.68,158.076Z" transform="matrix(1,0,0.384374,0.665756,50.5486,-41.8752)" style="fill:#ebebeb;stroke:#000;stroke-width:.92px"/></g><g><path d="M227.68,158.076L202.347,158.076L177.014,175.729L202.347,175.729L227.68,158.076Z" transform="matrix(1,0,0.384374,0.665756,-42.1897,16.8878)" style="fill:#ebebeb;stroke:#000;stroke-width:.92px"/></g><g><path d="M227.68,158.076L202.347,158.076L177.014,175.729L202.347,175.729L227.68,158.076Z" transform="matrix(1,0,0.384374,0.665756,32.0009,-30.1226)" style="fill:#ebebeb;stroke:#000;stroke-width:.92px"/></g><g><path d="M227.68,158.076L202.347,158.076L177.014,175.729L202.347,175.729L227.68,158.076Z" transform="matrix(1,0,0.384374,0.665756,-5.09437,-6.61743)" style="fill:#ebebeb;stroke:#000;stroke-width:.92px"/></g><g><path d="M227.68,158.076L202.347,158.076L177.014,175.729L202.347,175.729L227.68,158.076Z" transform="matrix(1,0,0.384374,0.665756,69.0962,-53.6278)" style="fill:#ebebeb;stroke:#000;stroke-width:.92px"/></g><g><path d="M227.68,158.076L202.347,158.076L177.014,175.729L202.347,175.729L227.68,158.076Z" transform="matrix(1,0,0.384374,0.665756,40.5947,28.6404)" style="fill:#f20d0d;stroke:#000;stroke-width:.92px"/></g><g><path d="M227.68,158.076L202.347,158.076L177.014,175.729L202.347,175.729L227.68,158.076Z" transform="matrix(1,0,0.384374,0.665756,114.785,-18.37)" style="fill:#ebebeb;stroke:#000;stroke-width:.92px"/></g><g><path d="M227.68,158.076L202.347,158.076L177.014,175.729L202.347,175.729L227.68,158.076Z" transform="matrix(1,0,0.384374,0.665756,77.69,5.13517)" style="fill:#ebebeb;stroke:#000;stroke-width:.92px"/></g><g><path d="M227.68,158.076L202.347,158.076L177.014,175.729L202.347,175.729L227.68,158.076Z" transform="matrix(1,0,0.384374,0.665756,151.881,-41.8752)" style="fill:#ebebeb;stroke:#000;stroke-width:.92px"/></g><g><path d="M227.68,158.076L202.347,158.076L177.014,175.729L202.347,175.729L227.68,158.076Z" transform="matrix(1,0,0.384374,0.665756,59.1424,16.8878)" style="fill:#ebebeb;stroke:#000;stroke-width:.92px"/></g><g><path d="M227.68,158.076L202.347,158.076L177.014,175.729L202.347,175.729L227.68,158.076Z" transform="matrix(1,0,0.384374,0.665756,133.333,-30.1226)" style="fill:#ebebeb;stroke:#000;stroke-width:.92px"/></g><g><path d="M227.68,158.076L202.347,158.076L177.014,175.729L202.347,175.729L227.68,158.076Z" transform="matrix(1,0,0.384374,0.665756,96.2377,-6.61743)" style="fill:#ebebeb;stroke:#000;stroke-width:.92px"/></g><g><path d="M227.68,158.076L202.347,158.076L177.014,175.729L202.347,175.729L227.68,158.076Z" transform="matrix(1,0,0.384374,0.665756,170.428,-53.6278)" style="fill:#ebebeb;stroke:#000;stroke-width:.92px"/></g><g><path d="M202.347,138.644L177.014,150.396L177.014,175.729L202.347,163.977L202.347,138.644Z" transform="matrix(0.731033,0,0,1,181.743,-4.43825)" style="fill:#f20d0d;stroke:#000;stroke-width:1.14px"/></g><g><path d="M202.347,138.644L177.014,150.396L177.014,175.729L202.347,163.977L202.347,138.644Z" transform="matrix(0.731033,0,0,1,255.735,-51.7595)" style="fill:#ebebeb;stroke:#000;stroke-width:1.14px"/></g><g><path d="M202.347,138.644L177.014,150.396L177.014,175.729L202.347,163.977L202.347,138.644Z" transform="matrix(0.731033,0,0,1,218.781,-28.0428)" style="fill:#ebebeb;stroke:#000;stroke-width:1.14px"/></g><g><path d="M202.347,138.644L177.014,150.396L177.014,175.729L202.347,163.977L202.347,138.644Z" transform="matrix(0.731033,0,0,1,292.64,-75.1028)" style="fill:#ebebeb;stroke:#000;stroke-width:1.14px"/></g><g><path d="M202.347,138.644L177.014,150.396L177.014,175.729L202.347,163.977L202.347,138.644Z" transform="matrix(0.731033,0,0,1,200.262,-16.2902)" style="fill:#ebebeb;stroke:#000;stroke-width:1.14px"/></g><g><path d="M202.347,138.644L177.014,150.396L177.014,175.729L202.347,163.977L202.347,138.644Z" transform="matrix(0.731033,0,0,1,274.254,-63.5121)" style="fill:#ebebeb;stroke:#000;stroke-width:1.14px"/></g><g><path d="M202.347,138.644L177.014,150.396L177.014,175.729L202.347,163.977L202.347,138.644Z" transform="matrix(0.731033,0,0,1,237.216,-39.9075)" style="fill:#ebebeb;stroke:#000;stroke-width:1.14px"/></g><g><path d="M202.347,138.644L177.014,150.396L177.014,175.729L202.347,163.977L202.347,138.644Z" transform="matrix(0.731033,0,0,1,311.159,-87.0314)" style="fill:#ebebeb;stroke:#000;stroke-width:1.14px"/></g><g><path d="M202.347,138.644L177.014,150.396L177.014,175.729L202.347,163.977L202.347,138.644Z" transform="matrix(0.731033,0,0,1,181.743,96.4328)" style="fill:#ebebeb;stroke:#000;stroke-width:1.14px"/></g><g><path d="M202.347,138.644L177.014,150.396L177.014,175.729L202.347,163.977L202.347,138.644Z" transform="matrix(0.731033,0,0,1,255.735,49.1116)" style="fill:#ebebeb;stroke:#000;stroke-width:1.14px"/></g><g><path d="M202.347,138.644L177.014,150.396L177.014,175.729L202.347,163.977L202.347,138.644Z" transform="matrix(0.731033,0,0,1,218.781,72.8283)" style="fill:#ebebeb;stroke:#000;stroke-width:1.14px"/></g><g><path d="M202.347,138.644L177.014,150.396L177.014,175.729L202.347,163.977L202.347,138.644Z" transform="matrix(0.731033,0,0,1,292.64,25.7683)" style="fill:#ebebeb;stroke:#000;stroke-width:1.14px"/></g><g><path d="M202.347,138.644L177.014,150.396L177.014,175.729L202.347,163.977L202.347,138.644Z" transform="matrix(0.731033,0,0,1,200.262,84.5809)" style="fill:#ebebeb;stroke:#000;stroke-width:1.14px"/></g><g><path d="M202.347,138.644L177.014,150.396L177.014,175.729L202.347,163.977L202.347,138.644Z" transform="matrix(0.731033,0,0,1,274.254,37.359)" style="fill:#ebebeb;stroke:#000;stroke-width:1.14px"/></g><g><path d="M202.347,138.644L177.014,150.396L177.014,175.729L202.347,163.977L202.347,138.644Z" transform="matrix(0.731033,0,0,1,237.216,60.9636)" style="fill:#ebebeb;stroke:#000;stroke-width:1.14px"/></g><g><path d="M202.347,138.644L177.014,150.396L177.014,175.729L202.347,163.977L202.347,138.644Z" transform="matrix(0.731033,0,0,1,311.159,13.8397)" style="fill:#ebebeb;stroke:#000;stroke-width:1.14px"/></g><g><path d="M202.347,138.644L177.014,150.396L177.014,175.729L202.347,163.977L202.347,138.644Z" transform="matrix(0.731033,0,0,1,181.743,45.9094)" style="fill:#ebebeb;stroke:#000;stroke-width:1.14px"/></g><g><path d="M202.347,138.644L177.014,150.396L177.014,175.729L202.347,163.977L202.347,138.644Z" transform="matrix(0.731033,0,0,1,255.735,-1.41182)" style="fill:#ebebeb;stroke:#000;stroke-width:1.14px"/></g><g><path d="M202.347,138.644L177.014,150.396L177.014,175.729L202.347,163.977L202.347,138.644Z" transform="matrix(0.731033,0,0,1,218.781,22.3048)" style="fill:#ebebeb;stroke:#000;stroke-width:1.14px"/></g><g><path d="M202.347,138.644L177.014,150.396L177.014,175.729L202.347,163.977L202.347,138.644Z" transform="matrix(0.731033,0,0,1,292.64,-24.7552)" style="fill:#ebebeb;stroke:#000;stroke-width:1.14px"/></g><g><path d="M202.347,138.644L177.014,150.396L177.014,175.729L202.347,163.977L202.347,138.644Z" transform="matrix(0.731033,0,0,1,200.262,34.0574)" style="fill:#ebebeb;stroke:#000;stroke-width:1.14px"/></g><g><path d="M202.347,138.644L177.014,150.396L177.014,175.729L202.347,163.977L202.347,138.644Z" transform="matrix(0.731033,0,0,1,274.254,-13.1644)" style="fill:#ebebeb;stroke:#000;stroke-width:1.14px"/></g><g><path d="M202.347,138.644L177.014,150.396L177.014,175.729L202.347,163.977L202.347,138.644Z" transform="matrix(0.731033,0,0,1,237.216,10.4402)" style="fill:#ebebeb;stroke:#000;stroke-width:1.14px"/></g><g><path d="M202.347,138.644L177.014,150.396L177.014,175.729L202.347,163.977L202.347,138.644Z" transform="matrix(0.731033,0,0,1,311.159,-36.6837)" style="fill:#ebebeb;stroke:#000;stroke-width:1.14px"/></g><g><path d="M202.347,138.644L177.014,150.396L177.014,175.729L202.347,163.977L202.347,138.644Z" transform="matrix(0.731033,0,0,1,181.743,146.781)" style="fill:#ebebeb;stroke:#000;stroke-width:1.14px"/></g><g><path d="M202.347,138.644L177.014,150.396L177.014,175.729L202.347,163.977L202.347,138.644Z" transform="matrix(0.731033,0,0,1,255.735,99.4593)" style="fill:#ebebeb;stroke:#000;stroke-width:1.14px"/></g><g><path d="M202.347,138.644L177.014,150.396L177.014,175.729L202.347,163.977L202.347,138.644Z" transform="matrix(0.731033,0,0,1,218.781,123.176)" style="fill:#ebebeb;stroke:#000;stroke-width:1.14px"/></g><g><path d="M202.347,138.644L177.014,150.396L177.014,175.729L202.347,163.977L202.347,138.644Z" transform="matrix(0.731033,0,0,1,292.64,76.1159)" style="fill:#ebebeb;stroke:#000;stroke-width:1.14px"/></g><g><path d="M202.347,138.644L177.014,150.396L177.014,175.729L202.347,163.977L202.347,138.644Z" transform="matrix(0.731033,0,0,1,200.262,134.929)" style="fill:#ebebeb;stroke:#000;stroke-width:1.14px"/></g><g><path d="M202.347,138.644L177.014,150.396L177.014,175.729L202.347,163.977L202.347,138.644Z" transform="matrix(0.731033,0,0,1,274.254,87.7067)" style="fill:#ebebeb;stroke:#000;stroke-width:1.14px"/></g><g><path d="M202.347,138.644L177.014,150.396L177.014,175.729L202.347,163.977L202.347,138.644Z" transform="matrix(0.731033,0,0,1,237.216,111.311)" style="fill:#ebebeb;stroke:#000;stroke-width:1.14px"/></g><g><path d="M202.347,138.644L177.014,150.396L177.014,175.729L202.347,163.977L202.347,138.644Z" transform="matrix(0.731033,0,0,1,311.159,64.1874)" style="fill:#ebebeb;stroke:#000;stroke-width:1.14px"/></g><g><path d="M202.347,138.644L177.014,150.396L177.014,175.729L202.347,163.977L202.347,138.644Z" transform="matrix(0.731033,0,0,1,181.743,20.6946)" style="fill:#ebebeb;stroke:#000;stroke-width:1.14px"/></g><g><path d="M202.347,138.644L177.014,150.396L177.014,175.729L202.347,163.977L202.347,138.644Z" transform="matrix(0.731033,0,0,1,255.735,-26.6267)" style="fill:#ebebeb;stroke:#000;stroke-width:1.14px"/></g><g><path d="M202.347,138.644L177.014,150.396L177.014,175.729L202.347,163.977L202.347,138.644Z" transform="matrix(0.731033,0,0,1,218.781,-2.91002)" style="fill:#ebebeb;stroke:#000;stroke-width:1.14px"/></g><g><path d="M202.347,138.644L177.014,150.396L177.014,175.729L202.347,163.977L202.347,138.644Z" transform="matrix(0.731033,0,0,1,292.64,-49.97)" style="fill:#ebebeb;stroke:#000;stroke-width:1.14px"/></g><g><path d="M202.347,138.644L177.014,150.396L177.014,175.729L202.347,163.977L202.347,138.644Z" transform="matrix(0.731033,0,0,1,200.262,8.84258)" style="fill:#ebebeb;stroke:#000;stroke-width:1.14px"/></g><g><path d="M202.347,138.644L177.014,150.396L177.014,175.729L202.347,163.977L202.347,138.644Z" transform="matrix(0.731033,0,0,1,274.254,-38.3793)" style="fill:#ebebeb;stroke:#000;stroke-width:1.14px"/></g><g><path d="M202.347,138.644L177.014,150.396L177.014,175.729L202.347,163.977L202.347,138.644Z" transform="matrix(0.731033,0,0,1,237.216,-14.7747)" style="fill:#ebebeb;stroke:#000;stroke-width:1.14px"/></g><g><path d="M202.347,138.644L177.014,150.396L177.014,175.729L202.347,163.977L202.347,138.644Z" transform="matrix(0.731033,0,0,1,311.159,-61.8986)" style="fill:#ebebeb;stroke:#000;stroke-width:1.14px"/></g><g><path d="M202.347,138.644L177.014,150.396L177.014,175.729L202.347,163.977L202.347,138.644Z" transform="matrix(0.731033,0,0,1,181.743,121.566)" style="fill:#ebebeb;stroke:#000;stroke-width:1.14px"/></g><g><path d="M202.347,138.644L177.014,150.396L177.014,175.729L202.347,163.977L202.347,138.644Z" transform="matrix(0.731033,0,0,1,255.735,74.2444)" style="fill:#ebebeb;stroke:#000;stroke-width:1.14px"/></g><g><path d="M202.347,138.644L177.014,150.396L177.014,175.729L202.347,163.977L202.347,138.644Z" transform="matrix(0.731033,0,0,1,218.781,97.9611)" style="fill:#ebebeb;stroke:#000;stroke-width:1.14px"/></g><g><path d="M202.347,138.644L177.014,150.396L177.014,175.729L202.347,163.977L202.347,138.644Z" transform="matrix(0.731033,0,0,1,292.64,50.9011)" style="fill:#ebebeb;stroke:#000;stroke-width:1.14px"/></g><g><path d="M202.347,138.644L177.014,150.396L177.014,175.729L202.347,163.977L202.347,138.644Z" transform="matrix(0.731033,0,0,1,200.262,109.714)" style="fill:#ebebeb;stroke:#000;stroke-width:1.14px"/></g><g><path d="M202.347,138.644L177.014,150.396L177.014,175.729L202.347,163.977L202.347,138.644Z" transform="matrix(0.731033,0,0,1,274.254,62.4918)" style="fill:#ebebeb;stroke:#000;stroke-width:1.14px"/></g><g><path d="M202.347,138.644L177.014,150.396L177.014,175.729L202.347,163.977L202.347,138.644Z" transform="matrix(0.731033,0,0,1,237.216,86.0964)" style="fill:#ebebeb;stroke:#000;stroke-width:1.14px"/></g><g><path d="M202.347,138.644L177.014,150.396L177.014,175.729L202.347,163.977L202.347,138.644Z" transform="matrix(0.731033,0,0,1,311.159,38.9725)" style="fill:#ebebeb;stroke:#000;stroke-width:1.14px"/></g><g><path d="M202.347,138.644L177.014,150.396L177.014,175.729L202.347,163.977L202.347,138.644Z" transform="matrix(0.731033,0,0,1,181.743,71.0422)" style="fill:#ebebeb;stroke:#000;stroke-width:1.14px"/></g><g><path d="M202.347,138.644L177.014,150.396L177.014,175.729L202.347,163.977L202.347,138.644Z" transform="matrix(0.731033,0,0,1,255.735,23.721)" style="fill:#ebebeb;stroke:#000;stroke-width:1.14px"/></g><g><path d="M202.347,138.644L177.014,150.396L177.014,175.729L202.347,163.977L202.347,138.644Z" transform="matrix(0.731033,0,0,1,218.781,47.4376)" style="fill:#ebebeb;stroke:#000;stroke-width:1.14px"/></g><g><path d="M202.347,138.644L177.014,150.396L177.014,175.729L202.347,163.977L202.347,138.644Z" transform="matrix(0.731033,0,0,1,292.64,0.377653)" style="fill:#ebebeb;stroke:#000;stroke-width:1.14px"/></g><g><path d="M202.347,138.644L177.014,150.396L177.014,175.729L202.347,163.977L202.347,138.644Z" transform="matrix(0.731033,0,0,1,200.262,59.1902)" style="fill:#ebebeb;stroke:#000;stroke-width:1.14px"/></g><g><path d="M202.347,138.644L177.014,150.396L177.014,175.729L202.347,163.977L202.347,138.644Z" transform="matrix(0.731033,0,0,1,274.254,11.9684)" style="fill:#ebebeb;stroke:#000;stroke-width:1.14px"/></g><g><path d="M202.347,138.644L177.014,150.396L177.014,175.729L202.347,163.977L202.347,138.644Z" transform="matrix(0.731033,0,0,1,237.216,35.573)" style="fill:#ebebeb;stroke:#000;stroke-width:1.14px"/></g><g><path d="M202.347,138.644L177.014,150.396L177.014,175.729L202.347,163.977L202.347,138.644Z" transform="matrix(0.731033,0,0,1,311.159,-11.5509)" style="fill:#ebebeb;stroke:#000;stroke-width:1.14px"/></g><g><path d="M202.347,138.644L177.014,150.396L177.014,175.729L202.347,163.977L202.347,138.644Z" transform="matrix(0.731033,0,0,1,181.743,171.913)" style="fill:#ebebeb;stroke:#000;stroke-width:1.14px"/></g><g><path d="M202.347,138.644L177.014,150.396L177.014,175.729L202.347,163.977L202.347,138.644Z" transform="matrix(0.731033,0,0,1,255.735,124.592)" style="fill:#ebebeb;stroke:#000;stroke-width:1.14px"/></g><g><path d="M202.347,138.644L177.014,150.396L177.014,175.729L202.347,163.977L202.347,138.644Z" transform="matrix(0.731033,0,0,1,218.781,148.309)" style="fill:#ebebeb;stroke:#000;stroke-width:1.14px"/></g><g><path d="M202.347,138.644L177.014,150.396L177.014,175.729L202.347,163.977L202.347,138.644Z" transform="matrix(0.731033,0,0,1,292.64,101.249)" style="fill:#ebebeb;stroke:#000;stroke-width:1.14px"/></g><g><path d="M202.347,138.644L177.014,150.396L177.014,175.729L202.347,163.977L202.347,138.644Z" transform="matrix(0.731033,0,0,1,200.262,160.061)" style="fill:#ebebeb;stroke:#000;stroke-width:1.14px"/></g><g><path d="M202.347,138.644L177.014,150.396L177.014,175.729L202.347,163.977L202.347,138.644Z" transform="matrix(0.731033,0,0,1,274.254,112.839)" style="fill:#ebebeb;stroke:#000;stroke-width:1.14px"/></g><g><path d="M202.347,138.644L177.014,150.396L177.014,175.729L202.347,163.977L202.347,138.644Z" transform="matrix(0.731033,0,0,1,237.216,136.444)" style="fill:#ebebeb;stroke:#000;stroke-width:1.14px"/></g><g><path d="M202.347,138.644L177.014,150.396L177.014,175.729L202.347,163.977L202.347,138.644Z" transform="matrix(0.731033,0,0,1,311.159,89.3202)" style="fill:#fff;stroke:#000;stroke-width:1.14px"/></g><g id="axes"><g><g><path d="M74.974,153.919L74.974,93.741" transform="matrix(1,0,0,1,-0.413519,-50) matrix(6.12323e-17,-1,1,6.12323e-17,-52.4094,270.607)" style="fill:none;stroke:#000;stroke-width:1px"/></g><g><path d="M74.974,153.919L74.974,93.741" transform="matrix(1,0,0,1,-0.413519,-50) matrix(0,-1,1,0,-52.4094,473.361)" style="fill:none;stroke:#000;stroke-width:1px"/></g><g><path d="M80.439,171.077L85.905,190.975L74.974,190.975L80.439,171.077Z" transform="matrix(1,0,0,1,-0.413519,-50) matrix(-1,-1.22465e-16,1.22465e-16,-1,151.86,569.465)" style="fill:#0f0"/></g><g><path d="M80.439,171.077L85.905,190.975L74.974,190.975L80.439,171.077Z" transform="matrix(1,0,0,1,-0.413519,-50) matrix(1,0,0,1,-9.01877,24.5561)" style="fill:#0f0"/></g><g><path d="M94.871,123.83L257.74,123.83" transform="matrix(1,0,0,1,-0.413519,-50) matrix(6.21256e-17,-1.01459,1,6.12323e-17,-52.4094,477.765)" style="fill:none;stroke:#0f0;stroke-width:.99px"/></g></g><g><g><path d="M80.439,171.077L85.905,190.975L74.974,190.975L80.439,171.077Z" transform="matrix(1,0,0,1,-0.413519,-50) matrix(0.547017,0.837121,-0.837121,0.547017,240.244,-7.07818) matrix(-1,-1.22465e-16,1.22465e-16,-1,157.286,422.965)" style="fill:#0d28f2"/></g><g><path d="M80.439,171.077L85.905,190.975L74.974,190.975L80.439,171.077Z" transform="matrix(1,0,0,1,-0.413519,-50) matrix(0.547017,0.837121,-0.837121,0.547017,240.244,-7.07818) matrix(1,0,0,1,-4.41699,-88.72)" style="fill:#0d28f2"/></g><g><path d="M94.871,123.83L257.74,123.83" transform="matrix(1,0,0,1,-0.413519,-50) matrix(0.547017,0.837121,-0.837121,0.547017,240.244,-7.07818) matrix(6.41412e-17,-0.795906,1.01308,1.05301e-16,-49.3679,307.392)" style="fill:none;stroke:#0d28f2;stroke-width:1.1px"/></g><g><path d="M74.974,153.919L74.974,93.741" transform="matrix(1,0,0,1,-0.413519,-50) matrix(0.547017,0.837121,-0.837121,0.547017,240.244,-7.07818) matrix(-0.837121,-0.547017,0.547017,-0.837121,67.9116,231.828)" style="fill:none;stroke:#000;stroke-width:1px"/></g></g><g><g><path d="M74.974,153.919L74.974,93.741" transform="matrix(1,0,0,1,-0.413519,-50) matrix(1,0,0,1,33.0393,0) matrix(1,0,0,1,0,30.6692)" style="fill:none;stroke:#fff;stroke-opacity:.54902;stroke-width:8.33px"/></g><g><path d="M74.974,153.919L74.974,93.741" transform="matrix(1,0,0,1,-0.413519,-50) matrix(1,0,0,1,33.0393,0) matrix(1,0,0,1,202.664,30.6692)" style="fill:none;stroke:#fff;stroke-opacity:.54902;stroke-width:8.33px"/></g><g><path d="M80.439,171.077L85.905,190.975L74.974,190.975L80.439,171.077Z" transform="matrix(1,0,0,1,-0.413519,-50) matrix(1,0,0,1,33.0393,0) matrix(6.12323e-17,-1,1,6.12323e-17,-96.1034,234.938)" style="fill:#f20d0d;stroke:#fff;stroke-opacity:.54902;stroke-width:8.33px"/></g><g><path d="M80.439,171.077L85.905,190.975L74.974,190.975L80.439,171.077Z" transform="matrix(1,0,0,1,-0.413519,-50) matrix(1,0,0,1,33.0393,0) matrix(6.12323e-17,1,-1,6.12323e-17,448.715,74.0599)" style="fill:#f20d0d;stroke:#fff;stroke-opacity:.54902;stroke-width:8.33px"/></g><g><path d="M94.871,123.83L257.74,123.83" transform="matrix(1,0,0,1,-0.413519,-50) matrix(1,0,0,1,33.0393,0) matrix(1,0,0,1,0,30.6692)" style="fill:none;stroke:#fff;stroke-opacity:.54902;stroke-width:8.33px"/></g></g><g><g><path d="M74.974,153.919L74.974,93.741" transform="matrix(1,0,0,1,-0.413519,-50) matrix(1,0,0,1,33.0393,0) matrix(1,0,0,1,0,30.6692)" style="fill:none;stroke:#fff;stroke-width:3.75px"/></g><g><path d="M74.974,153.919L74.974,93.741" transform="matrix(1,0,0,1,-0.413519,-50) matrix(1,0,0,1,33.0393,0) matrix(1,0,0,1,202.664,30.6692)" style="fill:none;stroke:#fff;stroke-width:3.75px"/></g><g><path d="M80.439,171.077L85.905,190.975L74.974,190.975L80.439,171.077Z" transform="matrix(1,0,0,1,-0.413519,-50) matrix(1,0,0,1,33.0393,0) matrix(6.12323e-17,-1,1,6.12323e-17,-96.1034,234.938)" style="fill:#f20d0d;stroke:#fff;stroke-width:3.75px"/></g><g><path d="M80.439,171.077L85.905,190.975L74.974,190.975L80.439,171.077Z" transform="matrix(1,0,0,1,-0.413519,-50) matrix(1,0,0,1,33.0393,0) matrix(6.12323e-17,1,-1,6.12323e-17,448.715,74.0599)" style="fill:#f20d0d;stroke:#fff;stroke-width:3.75px"/></g><g><path d="M94.871,123.83L257.74,123.83" transform="matrix(1,0,0,1,-0.413519,-50) matrix(1,0,0,1,33.0393,0) matrix(1,0,0,1,0,30.6692)" style="fill:none;stroke:#fff;stroke-width:3.75px"/></g></g><g><g><path d="M74.974,153.919L74.974,93.741" transform="matrix(1,0,0,1,-0.413519,-50) matrix(1,0,0,1,33.0393,0) matrix(1,0,0,1,0,30.6692)" style="fill:none;stroke:#000;stroke-width:1px"/></g><g><path d="M74.974,153.919L74.974,93.741" transform="matrix(1,0,0,1,-0.413519,-50) matrix(1,0,0,1,33.0393,0) matrix(1,0,0,1,202.664,30.6692)" style="fill:none;stroke:#000;stroke-width:1px"/></g><g><path d="M80.439,171.077L85.905,190.975L74.974,190.975L80.439,171.077Z" transform="matrix(1,0,0,1,-0.413519,-50) matrix(1,0,0,1,33.0393,0) matrix(6.12323e-17,-1,1,6.12323e-17,-96.1034,234.938)" style="fill:#f20d0d"/></g><g><path d="M80.439,171.077L85.905,190.975L74.974,190.975L80.439,171.077Z" transform="matrix(1,0,0,1,-0.413519,-50) matrix(1,0,0,1,33.0393,0) matrix(6.12323e-17,1,-1,6.12323e-17,448.715,74.0599)" style="fill:#f20d0d"/></g><g><path d="M94.871,123.83L257.74,123.83" transform="matrix(1,0,0,1,-0.413519,-50) matrix(1,0,0,1,33.0393,0) matrix(1,0,0,1,0,30.6692)" style="fill:none;stroke:#f20d0d;stroke-width:1px"/></g></g></g></svg>