<svg xmlns="http://www.w3.org/2000/svg" xmlns:xlink="http://www.w3.org/1999/xlink" width="100%" height="100%" version="1.1" viewBox="0 0 500 400" xml:space="preserve" style="fill-rule:evenodd;clip-rule:evenodd;stroke-linecap:round;stroke-linejoin:round;stroke-miterlimit:1.5"><g transform="matrix(1,0,0,1,-68.9948,-4.67287)"><rect width="25.333" height="25.333" x="177.014" y="150.396" style="stroke:#000;stroke-width:1px"/></g><g transform="matrix(1,0,0,1,-68.9948,96.6592)"><rect width="25.333" height="25.333" x="177.014" y="150.396" style="fill:#009200;stroke:#000;stroke-width:1px"/></g><g transform="matrix(1,0,0,1,-68.9948,45.9931)"><rect width="25.333" height="25.333" x="177.014" y="150.396" style="fill:#004900;stroke:#000;stroke-width:1px"/></g><g transform="matrix(1,0,0,1,-68.9948,147.325)"><rect width="25.333" height="25.333" x="177.014" y="150.396" style="fill:#00db00;stroke:#000;stroke-width:1px"/></g><g transform="matrix(1,0,0,1,-68.9948,20.6601)"><rect width="25.333" height="25.333" x="177.014" y="150.396" style="fill:#002400;stroke:#000;stroke-width:1px"/></g><g transform="matrix(1,0,0,1,-68.9948,121.992)"><rect width="25.333" height="25.333" x="177.014" y="150.396" style="fill:#00b600;stroke:#000;stroke-width:1px"/></g><g transform="matrix(1,0,0,1,-68.9948,71.3262)"><rect width="25.333" height="25.333" x="177.014" y="150.396" style="fill:#006d00;stroke:#000;stroke-width:1px"/></g><g transform="matrix(1,0,0,1,-68.9948,172.658)"><rect width="25.333" height="25.333" x="177.014" y="150.396" style="fill:#0f0;stroke:#000;stroke-width:1px"/></g><g transform="matrix(1,0,0,1,32.3372,-4.67287)"><rect width="25.333" height="25.333" x="177.014" y="150.396" style="fill:#910000;stroke:#000;stroke-width:1px"/></g><g transform="matrix(1,0,0,1,32.3372,96.6592)"><rect width="25.333" height="25.333" x="177.014" y="150.396" style="fill:#919100;stroke:#000;stroke-width:1px"/></g><g transform="matrix(1,0,0,1,32.3372,45.9931)"><rect width="25.333" height="25.333" x="177.014" y="150.396" style="fill:#914800;stroke:#000;stroke-width:1px"/></g><g transform="matrix(1,0,0,1,32.3372,147.325)"><rect width="25.333" height="25.333" x="177.014" y="150.396" style="fill:#91da00;stroke:#000;stroke-width:1px"/></g><g transform="matrix(1,0,0,1,32.3372,20.6601)"><rect width="25.333" height="25.333" x="177.014" y="150.396" style="fill:#8e2400;stroke:#000;stroke-width:1px"/></g><g transform="matrix(1,0,0,1,32.3372,121.992)"><rect width="25.333" height="25.333" x="177.014" y="150.396" style="fill:#91b600;stroke:#000;stroke-width:1px"/></g><g transform="matrix(1,0,0,1,32.3372,71.3262)"><rect width="25.333" height="25.333" x="177.014" y="150.396" style="fill:#916d00;stroke:#000;stroke-width:1px"/></g><g transform="matrix(1,0,0,1,32.3372,172.658)"><rect width="25.333" height="25.333" x="177.014" y="150.396" style="fill:#91ff00;stroke:#000;stroke-width:1px"/></g><g transform="matrix(1,0,0,1,-18.3288,-4.67287)"><rect width="25.333" height="25.333" x="177.014" y="150.396" style="fill:#490000;stroke:#000;stroke-width:1px"/></g><g transform="matrix(1,0,0,1,-18.3288,96.6592)"><rect width="25.333" height="25.333" x="177.014" y="150.396" style="fill:#489100;stroke:#000;stroke-width:1px"/></g><g transform="matrix(1,0,0,1,-18.3288,45.9931)"><rect width="25.333" height="25.333" x="177.014" y="150.396" style="fill:#494900;stroke:#000;stroke-width:1px"/></g><g transform="matrix(1,0,0,1,-18.3288,147.325)"><rect width="25.333" height="25.333" x="177.014" y="150.396" style="fill:#49da00;stroke:#000;stroke-width:1px"/></g><g transform="matrix(1,0,0,1,-18.3288,20.6601)"><rect width="25.333" height="25.333" x="177.014" y="150.396" style="fill:#482400;stroke:#000;stroke-width:1px"/></g><g transform="matrix(1,0,0,1,-18.3288,121.992)"><rect width="25.333" height="25.333" x="177.014" y="150.396" style="fill:#49b600;stroke:#000;stroke-width:1px"/></g><g transform="matrix(1,0,0,1,-18.3288,71.3262)"><rect width="25.333" height="25.333" x="177.014" y="150.396" style="fill:#486d00;stroke:#000;stroke-width:1px"/></g><g transform="matrix(1,0,0,1,-18.3288,172.658)"><rect width="25.333" height="25.333" x="177.014" y="150.396" style="fill:#49ff00;stroke:#000;stroke-width:1px"/></g><g transform="matrix(1,0,0,1,83.0033,-4.67287)"><rect width="25.333" height="25.333" x="177.014" y="150.396" style="fill:#da0000;stroke:#000;stroke-width:1px"/></g><g transform="matrix(1,0,0,1,83.0033,96.6592)"><rect width="25.333" height="25.333" x="177.014" y="150.396" style="fill:#db9100;stroke:#000;stroke-width:1px"/></g><g transform="matrix(1,0,0,1,83.0033,45.9931)"><rect width="25.333" height="25.333" x="177.014" y="150.396" style="fill:#db4800;stroke:#000;stroke-width:1px"/></g><g transform="matrix(1,0,0,1,83.0033,147.325)"><rect width="25.333" height="25.333" x="177.014" y="150.396" style="fill:#dada00;stroke:#000;stroke-width:1px"/></g><g transform="matrix(1,0,0,1,83.0033,20.6601)"><rect width="25.333" height="25.333" x="177.014" y="150.396" style="fill:#db2400;stroke:#000;stroke-width:1px"/></g><g transform="matrix(1,0,0,1,83.0033,121.992)"><rect width="25.333" height="25.333" x="177.014" y="150.396" style="fill:#dab600;stroke:#000;stroke-width:1px"/></g><g transform="matrix(1,0,0,1,83.0033,71.3262)"><rect width="25.333" height="25.333" x="177.014" y="150.396" style="fill:#da6d00;stroke:#000;stroke-width:1px"/></g><g transform="matrix(1,0,0,1,83.0033,172.658)"><rect width="25.333" height="25.333" x="177.014" y="150.396" style="fill:#daff00;stroke:#000;stroke-width:1px"/></g><g transform="matrix(1,0,0,1,-43.6618,-4.67287)"><rect width="25.333" height="25.333" x="177.014" y="150.396" style="fill:#240000;stroke:#000;stroke-width:1px"/></g><g transform="matrix(1,0,0,1,-43.6618,96.6592)"><rect width="25.333" height="25.333" x="177.014" y="150.396" style="fill:#249100;stroke:#000;stroke-width:1px"/></g><g transform="matrix(1,0,0,1,-43.6618,45.9931)"><rect width="25.333" height="25.333" x="177.014" y="150.396" style="fill:#244800;stroke:#000;stroke-width:1px"/></g><g transform="matrix(1,0,0,1,-43.6618,147.325)"><rect width="25.333" height="25.333" x="177.014" y="150.396" style="fill:#24da00;stroke:#000;stroke-width:1px"/></g><g transform="matrix(1,0,0,1,-43.6618,20.6601)"><rect width="25.333" height="25.333" x="177.014" y="150.396" style="fill:#242400;stroke:#000;stroke-width:1px"/></g><g transform="matrix(1,0,0,1,-43.6618,121.992)"><rect width="25.333" height="25.333" x="177.014" y="150.396" style="fill:#24b600;stroke:#000;stroke-width:1px"/></g><g transform="matrix(1,0,0,1,-43.6618,71.3262)"><rect width="25.333" height="25.333" x="177.014" y="150.396" style="fill:#246d00;stroke:#000;stroke-width:1px"/></g><g transform="matrix(1,0,0,1,-43.6618,172.658)"><rect width="25.333" height="25.333" x="177.014" y="150.396" style="fill:#24ff00;stroke:#000;stroke-width:1px"/></g><g transform="matrix(1,0,0,1,57.6702,-4.67287)"><rect width="25.333" height="25.333" x="177.014" y="150.396" style="fill:#b60000;stroke:#000;stroke-width:1px"/></g><g transform="matrix(1,0,0,1,57.6702,96.6592)"><rect width="25.333" height="25.333" x="177.014" y="150.396" style="fill:#b69100;stroke:#000;stroke-width:1px"/></g><g transform="matrix(1,0,0,1,57.6702,45.9931)"><rect width="25.333" height="25.333" x="177.014" y="150.396" style="fill:#c04800;stroke:#000;stroke-width:1px"/></g><g transform="matrix(1,0,0,1,57.6702,147.325)"><rect width="25.333" height="25.333" x="177.014" y="150.396" style="fill:#b6da00;stroke:#000;stroke-width:1px"/></g><g transform="matrix(1,0,0,1,57.6702,20.6601)"><rect width="25.333" height="25.333" x="177.014" y="150.396" style="fill:#b62400;stroke:#000;stroke-width:1px"/></g><g transform="matrix(1,0,0,1,57.6702,121.992)"><rect width="25.333" height="25.333" x="177.014" y="150.396" style="fill:#b6b600;stroke:#000;stroke-width:1px"/></g><g transform="matrix(1,0,0,1,57.6702,71.3262)"><rect width="25.333" height="25.333" x="177.014" y="150.396" style="fill:#b66d00;stroke:#000;stroke-width:1px"/></g><g transform="matrix(1,0,0,1,57.6702,172.658)"><rect width="25.333" height="25.333" x="177.014" y="150.396" style="fill:#b6ff00;stroke:#000;stroke-width:1px"/></g><g transform="matrix(1,0,0,1,7.00423,-4.67287)"><rect width="25.333" height="25.333" x="177.014" y="150.396" style="fill:#6d0000;stroke:#000;stroke-width:1px"/></g><g transform="matrix(1,0,0,1,7.00423,96.6592)"><rect width="25.333" height="25.333" x="177.014" y="150.396" style="fill:#6d9100;stroke:#000;stroke-width:1px"/></g><g transform="matrix(1,0,0,1,7.00423,45.9931)"><rect width="25.333" height="25.333" x="177.014" y="150.396" style="fill:#6d4800;stroke:#000;stroke-width:1px"/></g><g transform="matrix(1,0,0,1,7.00423,147.325)"><rect width="25.333" height="25.333" x="177.014" y="150.396" style="fill:#6dda00;stroke:#000;stroke-width:1px"/></g><g transform="matrix(1,0,0,1,7.00423,20.6601)"><rect width="25.333" height="25.333" x="177.014" y="150.396" style="fill:#6d2400;stroke:#000;stroke-width:1px"/></g><g transform="matrix(1,0,0,1,7.00423,121.992)"><rect width="25.333" height="25.333" x="177.014" y="150.396" style="fill:#6db600;stroke:#000;stroke-width:1px"/></g><g transform="matrix(1,0,0,1,7.00423,71.3262)"><rect width="25.333" height="25.333" x="177.014" y="150.396" style="fill:#6d6d00;stroke:#000;stroke-width:1px"/></g><g transform="matrix(1,0,0,1,7.00423,172.658)"><rect width="25.333" height="25.333" x="177.014" y="150.396" style="fill:#6dff00;stroke:#000;stroke-width:1px"/></g><g transform="matrix(1,0,0,1,108.336,-4.67287)"><rect width="25.333" height="25.333" x="177.014" y="150.396" style="fill:#ff000d;stroke:#000;stroke-width:1px"/></g><g transform="matrix(1,0,0,1,108.336,96.6592)"><rect width="25.333" height="25.333" x="177.014" y="150.396" style="fill:#ff9100;stroke:#000;stroke-width:1px"/></g><g transform="matrix(1,0,0,1,108.336,45.9931)"><rect width="25.333" height="25.333" x="177.014" y="150.396" style="fill:#ff4800;stroke:#000;stroke-width:1px"/></g><g transform="matrix(1,0,0,1,108.336,147.325)"><rect width="25.333" height="25.333" x="177.014" y="150.396" style="fill:#ffda00;stroke:#000;stroke-width:1px"/></g><g transform="matrix(1,0,0,1,108.336,20.6601)"><rect width="25.333" height="25.333" x="177.014" y="150.396" style="fill:#ff2400;stroke:#000;stroke-width:1px"/></g><g transform="matrix(1,0,0,1,108.336,121.992)"><rect width="25.333" height="25.333" x="177.014" y="150.396" style="fill:#ffb600;stroke:#000;stroke-width:1px"/></g><g transform="matrix(1,0,0,1,108.336,71.3262)"><rect width="25.333" height="25.333" x="177.014" y="150.396" style="fill:#ff6d00;stroke:#000;stroke-width:1px"/></g><g transform="matrix(1,0,0,1,108.336,172.658)"><rect width="25.333" height="25.333" x="177.014" y="150.396" style="fill:#ff0;stroke:#000;stroke-width:1px"/></g><g><path d="M227.68,158.076L202.347,158.076L177.014,175.729L202.347,175.729L227.68,158.076Z" transform="matrix(1,0,0.384374,0.665756,-137.143,28.6404)" style="stroke:#000;stroke-width:.92px"/></g><g><path d="M227.68,158.076L202.347,158.076L177.014,175.729L202.347,175.729L227.68,158.076Z" transform="matrix(1,0,0.384374,0.665756,-62.9529,-18.37)" style="fill:#000092;stroke:#000;stroke-width:.92px"/></g><g><path d="M227.68,158.076L202.347,158.076L177.014,175.729L202.347,175.729L227.68,158.076Z" transform="matrix(1,0,0.384374,0.665756,-100.048,5.13517)" style="fill:#000049;stroke:#000;stroke-width:.92px"/></g><g><path d="M227.68,158.076L202.347,158.076L177.014,175.729L202.347,175.729L227.68,158.076Z" transform="matrix(1,0,0.384374,0.665756,-25.8576,-41.8752)" style="fill:#0000db;stroke:#000;stroke-width:.92px"/></g><g><path d="M227.68,158.076L202.347,158.076L177.014,175.729L202.347,175.729L227.68,158.076Z" transform="matrix(1,0,0.384374,0.665756,-118.596,16.8878)" style="fill:#000024;stroke:#000;stroke-width:.92px"/></g><g><path d="M227.68,158.076L202.347,158.076L177.014,175.729L202.347,175.729L227.68,158.076Z" transform="matrix(1,0,0.384374,0.665756,-44.4052,-30.1226)" style="fill:#0000b6;stroke:#000;stroke-width:.92px"/></g><g><path d="M227.68,158.076L202.347,158.076L177.014,175.729L202.347,175.729L227.68,158.076Z" transform="matrix(1,0,0.384374,0.665756,-81.5005,-6.61743)" style="fill:#00006d;stroke:#000;stroke-width:.92px"/></g><g><path d="M227.68,158.076L202.347,158.076L177.014,175.729L202.347,175.729L227.68,158.076Z" transform="matrix(1,0,0.384374,0.665756,-7.30994,-53.6278)" style="fill:#00f;stroke:#000;stroke-width:.92px"/></g><g><path d="M227.68,158.076L202.347,158.076L177.014,175.729L202.347,175.729L227.68,158.076Z" transform="matrix(1,0,0.384374,0.665756,-35.8114,28.6404)" style="fill:#910000;stroke:#000;stroke-width:.92px"/></g><g><path d="M227.68,158.076L202.347,158.076L177.014,175.729L202.347,175.729L227.68,158.076Z" transform="matrix(1,0,0.384374,0.665756,38.3792,-18.37)" style="fill:#910091;stroke:#000;stroke-width:.92px"/></g><g><path d="M227.68,158.076L202.347,158.076L177.014,175.729L202.347,175.729L227.68,158.076Z" transform="matrix(1,0,0.384374,0.665756,1.28388,5.13517)" style="fill:#910048;stroke:#000;stroke-width:.92px"/></g><g><path d="M227.68,158.076L202.347,158.076L177.014,175.729L202.347,175.729L227.68,158.076Z" transform="matrix(1,0,0.384374,0.665756,75.4745,-41.8752)" style="fill:#9100da;stroke:#000;stroke-width:.92px"/></g><g><path d="M227.68,158.076L202.347,158.076L177.014,175.729L202.347,175.729L227.68,158.076Z" transform="matrix(1,0,0.384374,0.665756,-17.2638,16.8878)" style="fill:#910024;stroke:#000;stroke-width:.92px"/></g><g><path d="M227.68,158.076L202.347,158.076L177.014,175.729L202.347,175.729L227.68,158.076Z" transform="matrix(1,0,0.384374,0.665756,56.9268,-30.1226)" style="fill:#9100b6;stroke:#000;stroke-width:.92px"/></g><g><path d="M227.68,158.076L202.347,158.076L177.014,175.729L202.347,175.729L227.68,158.076Z" transform="matrix(1,0,0.384374,0.665756,19.8315,-6.61743)" style="fill:#91006d;stroke:#000;stroke-width:.92px"/></g><g><path d="M227.68,158.076L202.347,158.076L177.014,175.729L202.347,175.729L227.68,158.076Z" transform="matrix(1,0,0.384374,0.665756,94.0221,-53.6278)" style="fill:#9100ff;stroke:#000;stroke-width:.92px"/></g><g><path d="M227.68,158.076L202.347,158.076L177.014,175.729L202.347,175.729L227.68,158.076Z" transform="matrix(1,0,0.384374,0.665756,-86.4774,28.6404)" style="fill:#490000;stroke:#000;stroke-width:.92px"/></g><g><path d="M227.68,158.076L202.347,158.076L177.014,175.729L202.347,175.729L227.68,158.076Z" transform="matrix(1,0,0.384374,0.665756,-12.2869,-18.37)" style="fill:#490091;stroke:#000;stroke-width:.92px"/></g><g><path d="M227.68,158.076L202.347,158.076L177.014,175.729L202.347,175.729L227.68,158.076Z" transform="matrix(1,0,0.384374,0.665756,-49.3821,5.13517)" style="fill:#480048;stroke:#000;stroke-width:.92px"/></g><g><path d="M227.68,158.076L202.347,158.076L177.014,175.729L202.347,175.729L227.68,158.076Z" transform="matrix(1,0,0.384374,0.665756,24.8084,-41.8752)" style="fill:#4900da;stroke:#000;stroke-width:.92px"/></g><g><path d="M227.68,158.076L202.347,158.076L177.014,175.729L202.347,175.729L227.68,158.076Z" transform="matrix(1,0,0.384374,0.665756,-67.9298,16.8878)" style="fill:#490024;stroke:#000;stroke-width:.92px"/></g><g><path d="M227.68,158.076L202.347,158.076L177.014,175.729L202.347,175.729L227.68,158.076Z" transform="matrix(1,0,0.384374,0.665756,6.26079,-30.1226)" style="fill:#4900b6;stroke:#000;stroke-width:.92px"/></g><g><path d="M227.68,158.076L202.347,158.076L177.014,175.729L202.347,175.729L227.68,158.076Z" transform="matrix(1,0,0.384374,0.665756,-30.8345,-6.61743)" style="fill:#49006d;stroke:#000;stroke-width:.92px"/></g><g><path d="M227.68,158.076L202.347,158.076L177.014,175.729L202.347,175.729L227.68,158.076Z" transform="matrix(1,0,0.384374,0.665756,43.3561,-53.6278)" style="fill:#4900ff;stroke:#000;stroke-width:.92px"/></g><g><path d="M227.68,158.076L202.347,158.076L177.014,175.729L202.347,175.729L227.68,158.076Z" transform="matrix(1,0,0.384374,0.665756,14.8546,28.6404)" style="fill:#da0000;stroke:#000;stroke-width:.92px"/></g><g><path d="M227.68,158.076L202.347,158.076L177.014,175.729L202.347,175.729L227.68,158.076Z" transform="matrix(1,0,0.384374,0.665756,89.0452,-18.37)" style="fill:#da0091;stroke:#000;stroke-width:.92px"/></g><g><path d="M227.68,158.076L202.347,158.076L177.014,175.729L202.347,175.729L227.68,158.076Z" transform="matrix(1,0,0.384374,0.665756,51.9499,5.13517)" style="fill:#da0048;stroke:#000;stroke-width:.92px"/></g><g><path d="M227.68,158.076L202.347,158.076L177.014,175.729L202.347,175.729L227.68,158.076Z" transform="matrix(1,0,0.384374,0.665756,126.14,-41.8752)" style="fill:#da00da;stroke:#000;stroke-width:.92px"/></g><g><path d="M227.68,158.076L202.347,158.076L177.014,175.729L202.347,175.729L227.68,158.076Z" transform="matrix(1,0,0.384374,0.665756,33.4023,16.8878)" style="fill:#da0024;stroke:#000;stroke-width:.92px"/></g><g><path d="M227.68,158.076L202.347,158.076L177.014,175.729L202.347,175.729L227.68,158.076Z" transform="matrix(1,0,0.384374,0.665756,107.593,-30.1226)" style="fill:#da00b6;stroke:#000;stroke-width:.92px"/></g><g><path d="M227.68,158.076L202.347,158.076L177.014,175.729L202.347,175.729L227.68,158.076Z" transform="matrix(1,0,0.384374,0.665756,70.4975,-6.61743)" style="fill:#da006d;stroke:#000;stroke-width:.92px"/></g><g><path d="M227.68,158.076L202.347,158.076L177.014,175.729L202.347,175.729L227.68,158.076Z" transform="matrix(1,0,0.384374,0.665756,144.688,-53.6278)" style="fill:#da00ff;stroke:#000;stroke-width:.92px"/></g><g><path d="M227.68,158.076L202.347,158.076L177.014,175.729L202.347,175.729L227.68,158.076Z" transform="matrix(1,0,0.384374,0.665756,-111.81,28.6404)" style="fill:#240000;stroke:#000;stroke-width:.92px"/></g><g><path d="M227.68,158.076L202.347,158.076L177.014,175.729L202.347,175.729L227.68,158.076Z" transform="matrix(1,0,0.384374,0.665756,-37.6199,-18.37)" style="fill:#240091;stroke:#000;stroke-width:.92px"/></g><g><path d="M227.68,158.076L202.347,158.076L177.014,175.729L202.347,175.729L227.68,158.076Z" transform="matrix(1,0,0.384374,0.665756,-74.7152,5.13517)" style="fill:#240048;stroke:#000;stroke-width:.92px"/></g><g><path d="M227.68,158.076L202.347,158.076L177.014,175.729L202.347,175.729L227.68,158.076Z" transform="matrix(1,0,0.384374,0.665756,-0.524576,-41.8752)" style="fill:#2400da;stroke:#000;stroke-width:.92px"/></g><g><path d="M227.68,158.076L202.347,158.076L177.014,175.729L202.347,175.729L227.68,158.076Z" transform="matrix(1,0,0.384374,0.665756,-93.2628,16.8878)" style="fill:#240024;stroke:#000;stroke-width:.92px"/></g><g><path d="M227.68,158.076L202.347,158.076L177.014,175.729L202.347,175.729L227.68,158.076Z" transform="matrix(1,0,0.384374,0.665756,-19.0722,-30.1226)" style="fill:#2400b6;stroke:#000;stroke-width:.92px"/></g><g><path d="M227.68,158.076L202.347,158.076L177.014,175.729L202.347,175.729L227.68,158.076Z" transform="matrix(1,0,0.384374,0.665756,-56.1675,-6.61743)" style="fill:#24006d;stroke:#000;stroke-width:.92px"/></g><g><path d="M227.68,158.076L202.347,158.076L177.014,175.729L202.347,175.729L227.68,158.076Z" transform="matrix(1,0,0.384374,0.665756,18.0231,-53.6278)" style="fill:#2400ff;stroke:#000;stroke-width:.92px"/></g><g><path d="M227.68,158.076L202.347,158.076L177.014,175.729L202.347,175.729L227.68,158.076Z" transform="matrix(1,0,0.384374,0.665756,-10.4784,28.6404)" style="fill:#b60000;stroke:#000;stroke-width:.92px"/></g><g><path d="M227.68,158.076L202.347,158.076L177.014,175.729L202.347,175.729L227.68,158.076Z" transform="matrix(1,0,0.384374,0.665756,63.7122,-18.37)" style="fill:#b60091;stroke:#000;stroke-width:.92px"/></g><g><path d="M227.68,158.076L202.347,158.076L177.014,175.729L202.347,175.729L227.68,158.076Z" transform="matrix(1,0,0.384374,0.665756,26.6169,5.13517)" style="fill:#b60048;stroke:#000;stroke-width:.92px"/></g><g><path d="M227.68,158.076L202.347,158.076L177.014,175.729L202.347,175.729L227.68,158.076Z" transform="matrix(1,0,0.384374,0.665756,100.807,-41.8752)" style="fill:#b600da;stroke:#000;stroke-width:.92px"/></g><g><path d="M227.68,158.076L202.347,158.076L177.014,175.729L202.347,175.729L227.68,158.076Z" transform="matrix(1,0,0.384374,0.665756,8.06924,16.8878)" style="fill:#b60024;stroke:#000;stroke-width:.92px"/></g><g><path d="M227.68,158.076L202.347,158.076L177.014,175.729L202.347,175.729L227.68,158.076Z" transform="matrix(1,0,0.384374,0.665756,82.2598,-30.1226)" style="fill:#b600b7;stroke:#000;stroke-width:.92px"/></g><g><path d="M227.68,158.076L202.347,158.076L177.014,175.729L202.347,175.729L227.68,158.076Z" transform="matrix(1,0,0.384374,0.665756,45.1645,-6.61743)" style="fill:#b6006d;stroke:#000;stroke-width:.92px"/></g><g><path d="M227.68,158.076L202.347,158.076L177.014,175.729L202.347,175.729L227.68,158.076Z" transform="matrix(1,0,0.384374,0.665756,119.355,-53.6278)" style="fill:#b600ff;stroke:#000;stroke-width:.92px"/></g><g><path d="M227.68,158.076L202.347,158.076L177.014,175.729L202.347,175.729L227.68,158.076Z" transform="matrix(1,0,0.384374,0.665756,-61.1444,28.6404)" style="fill:#6d0000;stroke:#000;stroke-width:.92px"/></g><g><path d="M227.68,158.076L202.347,158.076L177.014,175.729L202.347,175.729L227.68,158.076Z" transform="matrix(1,0,0.384374,0.665756,13.0462,-18.37)" style="fill:#6d0091;stroke:#000;stroke-width:.92px"/></g><g><path d="M227.68,158.076L202.347,158.076L177.014,175.729L202.347,175.729L227.68,158.076Z" transform="matrix(1,0,0.384374,0.665756,-24.0491,5.13517)" style="fill:#6d0048;stroke:#000;stroke-width:.92px"/></g><g><path d="M227.68,158.076L202.347,158.076L177.014,175.729L202.347,175.729L227.68,158.076Z" transform="matrix(1,0,0.384374,0.665756,50.1414,-41.8752)" style="fill:#6d00da;stroke:#000;stroke-width:.92px"/></g><g><path d="M227.68,158.076L202.347,158.076L177.014,175.729L202.347,175.729L227.68,158.076Z" transform="matrix(1,0,0.384374,0.665756,-42.5968,16.8878)" style="fill:#6d0024;stroke:#000;stroke-width:.92px"/></g><g><path d="M227.68,158.076L202.347,158.076L177.014,175.729L202.347,175.729L227.68,158.076Z" transform="matrix(1,0,0.384374,0.665756,31.5938,-30.1226)" style="fill:#6d00b6;stroke:#000;stroke-width:.92px"/></g><g><path d="M227.68,158.076L202.347,158.076L177.014,175.729L202.347,175.729L227.68,158.076Z" transform="matrix(1,0,0.384374,0.665756,-5.50149,-6.61743)" style="fill:#6d006d;stroke:#000;stroke-width:.92px"/></g><g><path d="M227.68,158.076L202.347,158.076L177.014,175.729L202.347,175.729L227.68,158.076Z" transform="matrix(1,0,0.384374,0.665756,68.6891,-53.6278)" style="fill:#6d00ff;stroke:#000;stroke-width:.92px"/></g><g><path d="M227.68,158.076L202.347,158.076L177.014,175.729L202.347,175.729L227.68,158.076Z" transform="matrix(1,0,0.384374,0.665756,40.1876,28.6404)" style="fill:#ff0d0d;stroke:#000;stroke-width:.92px"/></g><g><path d="M227.68,158.076L202.347,158.076L177.014,175.729L202.347,175.729L227.68,158.076Z" transform="matrix(1,0,0.384374,0.665756,114.378,-18.37)" style="fill:#ff0091;stroke:#000;stroke-width:.92px"/></g><g><path d="M227.68,158.076L202.347,158.076L177.014,175.729L202.347,175.729L227.68,158.076Z" transform="matrix(1,0,0.384374,0.665756,77.2829,5.13517)" style="fill:#ff0048;stroke:#000;stroke-width:.92px"/></g><g><path d="M227.68,158.076L202.347,158.076L177.014,175.729L202.347,175.729L227.68,158.076Z" transform="matrix(1,0,0.384374,0.665756,151.473,-41.8752)" style="fill:#ff00da;stroke:#000;stroke-width:.92px"/></g><g><path d="M227.68,158.076L202.347,158.076L177.014,175.729L202.347,175.729L227.68,158.076Z" transform="matrix(1,0,0.384374,0.665756,58.7353,16.8878)" style="fill:#ff0024;stroke:#000;stroke-width:.92px"/></g><g><path d="M227.68,158.076L202.347,158.076L177.014,175.729L202.347,175.729L227.68,158.076Z" transform="matrix(1,0,0.384374,0.665756,132.926,-30.1226)" style="fill:#ff00b6;stroke:#000;stroke-width:.92px"/></g><g><path d="M227.68,158.076L202.347,158.076L177.014,175.729L202.347,175.729L227.68,158.076Z" transform="matrix(1,0,0.384374,0.665756,95.8306,-6.61743)" style="fill:#ff006d;stroke:#000;stroke-width:.92px"/></g><g><path d="M227.68,158.076L202.347,158.076L177.014,175.729L202.347,175.729L227.68,158.076Z" transform="matrix(1,0,0.384374,0.665756,170.021,-53.6278)" style="fill:#f0f;stroke:#000;stroke-width:.92px"/></g><g><path d="M202.347,138.644L177.014,150.396L177.014,175.729L202.347,163.977L202.347,138.644Z" transform="matrix(0.731033,0,0,1,181.336,-4.43825)" style="fill:red;stroke:#000;stroke-width:1.14px"/></g><g><path d="M202.347,138.644L177.014,150.396L177.014,175.729L202.347,163.977L202.347,138.644Z" transform="matrix(0.731033,0,0,1,255.328,-51.7595)" style="fill:#ff0091;stroke:#000;stroke-width:1.14px"/></g><g><path d="M202.347,138.644L177.014,150.396L177.014,175.729L202.347,163.977L202.347,138.644Z" transform="matrix(0.731033,0,0,1,218.374,-28.0428)" style="fill:#ff0048;stroke:#000;stroke-width:1.14px"/></g><g><path d="M202.347,138.644L177.014,150.396L177.014,175.729L202.347,163.977L202.347,138.644Z" transform="matrix(0.731033,0,0,1,292.233,-75.1028)" style="fill:#ff00da;stroke:#000;stroke-width:1.14px"/></g><g><path d="M202.347,138.644L177.014,150.396L177.014,175.729L202.347,163.977L202.347,138.644Z" transform="matrix(0.731033,0,0,1,199.855,-16.2902)" style="fill:#ff0024;stroke:#000;stroke-width:1.14px"/></g><g><path d="M202.347,138.644L177.014,150.396L177.014,175.729L202.347,163.977L202.347,138.644Z" transform="matrix(0.731033,0,0,1,273.847,-63.5121)" style="fill:#ff00b6;stroke:#000;stroke-width:1.14px"/></g><g><path d="M202.347,138.644L177.014,150.396L177.014,175.729L202.347,163.977L202.347,138.644Z" transform="matrix(0.731033,0,0,1,236.809,-39.9075)" style="fill:#ff006d;stroke:#000;stroke-width:1.14px"/></g><g><path d="M202.347,138.644L177.014,150.396L177.014,175.729L202.347,163.977L202.347,138.644Z" transform="matrix(0.731033,0,0,1,310.752,-87.0314)" style="fill:#f0f;stroke:#000;stroke-width:1.14px"/></g><g><path d="M202.347,138.644L177.014,150.396L177.014,175.729L202.347,163.977L202.347,138.644Z" transform="matrix(0.731033,0,0,1,181.336,96.4328)" style="fill:#ff9100;stroke:#000;stroke-width:1.14px"/></g><g><path d="M202.347,138.644L177.014,150.396L177.014,175.729L202.347,163.977L202.347,138.644Z" transform="matrix(0.731033,0,0,1,255.328,49.1116)" style="fill:#ff9191;stroke:#000;stroke-width:1.14px"/></g><g><path d="M202.347,138.644L177.014,150.396L177.014,175.729L202.347,163.977L202.347,138.644Z" transform="matrix(0.731033,0,0,1,218.374,72.8283)" style="fill:#ff9148;stroke:#000;stroke-width:1.14px"/></g><g><path d="M202.347,138.644L177.014,150.396L177.014,175.729L202.347,163.977L202.347,138.644Z" transform="matrix(0.731033,0,0,1,292.233,25.7683)" style="fill:#ff91da;stroke:#000;stroke-width:1.14px"/></g><g><path d="M202.347,138.644L177.014,150.396L177.014,175.729L202.347,163.977L202.347,138.644Z" transform="matrix(0.731033,0,0,1,199.855,84.5809)" style="fill:#ff9124;stroke:#000;stroke-width:1.14px"/></g><g><path d="M202.347,138.644L177.014,150.396L177.014,175.729L202.347,163.977L202.347,138.644Z" transform="matrix(0.731033,0,0,1,273.847,37.359)" style="fill:#ff91b6;stroke:#000;stroke-width:1.14px"/></g><g><path d="M202.347,138.644L177.014,150.396L177.014,175.729L202.347,163.977L202.347,138.644Z" transform="matrix(0.731033,0,0,1,236.809,60.9636)" style="fill:#ff916d;stroke:#000;stroke-width:1.14px"/></g><g><path d="M202.347,138.644L177.014,150.396L177.014,175.729L202.347,163.977L202.347,138.644Z" transform="matrix(0.731033,0,0,1,310.752,13.8397)" style="fill:#ff91ff;stroke:#000;stroke-width:1.14px"/></g><g><path d="M202.347,138.644L177.014,150.396L177.014,175.729L202.347,163.977L202.347,138.644Z" transform="matrix(0.731033,0,0,1,181.336,45.9094)" style="fill:#ff4800;stroke:#000;stroke-width:1.14px"/></g><g><path d="M202.347,138.644L177.014,150.396L177.014,175.729L202.347,163.977L202.347,138.644Z" transform="matrix(0.731033,0,0,1,255.328,-1.41182)" style="fill:#ff498e;stroke:#000;stroke-width:1.14px"/></g><g><path d="M202.347,138.644L177.014,150.396L177.014,175.729L202.347,163.977L202.347,138.644Z" transform="matrix(0.731033,0,0,1,218.374,22.3048)" style="fill:#ff4848;stroke:#000;stroke-width:1.14px"/></g><g><path d="M202.347,138.644L177.014,150.396L177.014,175.729L202.347,163.977L202.347,138.644Z" transform="matrix(0.731033,0,0,1,292.233,-24.7552)" style="fill:#ff49da;stroke:#000;stroke-width:1.14px"/></g><g><path d="M202.347,138.644L177.014,150.396L177.014,175.729L202.347,163.977L202.347,138.644Z" transform="matrix(0.731033,0,0,1,199.855,34.0574)" style="fill:#ff4824;stroke:#000;stroke-width:1.14px"/></g><g><path d="M202.347,138.644L177.014,150.396L177.014,175.729L202.347,163.977L202.347,138.644Z" transform="matrix(0.731033,0,0,1,273.847,-13.1644)" style="fill:#ff49b6;stroke:#000;stroke-width:1.14px"/></g><g><path d="M202.347,138.644L177.014,150.396L177.014,175.729L202.347,163.977L202.347,138.644Z" transform="matrix(0.731033,0,0,1,236.809,10.4402)" style="fill:#ff496d;stroke:#000;stroke-width:1.14px"/></g><g><path d="M202.347,138.644L177.014,150.396L177.014,175.729L202.347,163.977L202.347,138.644Z" transform="matrix(0.731033,0,0,1,310.752,-36.6837)" style="fill:#ff49ff;stroke:#000;stroke-width:1.14px"/></g><g><path d="M202.347,138.644L177.014,150.396L177.014,175.729L202.347,163.977L202.347,138.644Z" transform="matrix(0.731033,0,0,1,181.336,146.781)" style="fill:#ffda00;stroke:#000;stroke-width:1.14px"/></g><g><path d="M202.347,138.644L177.014,150.396L177.014,175.729L202.347,163.977L202.347,138.644Z" transform="matrix(0.731033,0,0,1,255.328,99.4593)" style="fill:#ffda8e;stroke:#000;stroke-width:1.14px"/></g><g><path d="M202.347,138.644L177.014,150.396L177.014,175.729L202.347,163.977L202.347,138.644Z" transform="matrix(0.731033,0,0,1,218.374,123.176)" style="fill:#ffda48;stroke:#000;stroke-width:1.14px"/></g><g><path d="M202.347,138.644L177.014,150.396L177.014,175.729L202.347,163.977L202.347,138.644Z" transform="matrix(0.731033,0,0,1,292.233,76.1159)" style="fill:#ffdbdb;stroke:#000;stroke-width:1.14px"/></g><g><path d="M202.347,138.644L177.014,150.396L177.014,175.729L202.347,163.977L202.347,138.644Z" transform="matrix(0.731033,0,0,1,199.855,134.929)" style="fill:#ffda24;stroke:#000;stroke-width:1.14px"/></g><g><path d="M202.347,138.644L177.014,150.396L177.014,175.729L202.347,163.977L202.347,138.644Z" transform="matrix(0.731033,0,0,1,273.847,87.7067)" style="fill:#ffdab6;stroke:#000;stroke-width:1.14px"/></g><g><path d="M202.347,138.644L177.014,150.396L177.014,175.729L202.347,163.977L202.347,138.644Z" transform="matrix(0.731033,0,0,1,236.809,111.311)" style="fill:#ffda6d;stroke:#000;stroke-width:1.14px"/></g><g><path d="M202.347,138.644L177.014,150.396L177.014,175.729L202.347,163.977L202.347,138.644Z" transform="matrix(0.731033,0,0,1,310.752,64.1874)" style="fill:#ffdaff;stroke:#000;stroke-width:1.14px"/></g><g><path d="M202.347,138.644L177.014,150.396L177.014,175.729L202.347,163.977L202.347,138.644Z" transform="matrix(0.731033,0,0,1,181.336,20.6946)" style="fill:#ff2400;stroke:#000;stroke-width:1.14px"/></g><g><path d="M202.347,138.644L177.014,150.396L177.014,175.729L202.347,163.977L202.347,138.644Z" transform="matrix(0.731033,0,0,1,255.328,-26.6267)" style="fill:#ff248e;stroke:#000;stroke-width:1.14px"/></g><g><path d="M202.347,138.644L177.014,150.396L177.014,175.729L202.347,163.977L202.347,138.644Z" transform="matrix(0.731033,0,0,1,218.374,-2.91002)" style="fill:#ff2448;stroke:#000;stroke-width:1.14px"/></g><g><path d="M202.347,138.644L177.014,150.396L177.014,175.729L202.347,163.977L202.347,138.644Z" transform="matrix(0.731033,0,0,1,292.233,-49.97)" style="fill:#ff24da;stroke:#000;stroke-width:1.14px"/></g><g><path d="M202.347,138.644L177.014,150.396L177.014,175.729L202.347,163.977L202.347,138.644Z" transform="matrix(0.731033,0,0,1,199.855,8.84258)" style="fill:#ff2424;stroke:#000;stroke-width:1.14px"/></g><g><path d="M202.347,138.644L177.014,150.396L177.014,175.729L202.347,163.977L202.347,138.644Z" transform="matrix(0.731033,0,0,1,273.847,-38.3793)" style="fill:#ff24b6;stroke:#000;stroke-width:1.14px"/></g><g><path d="M202.347,138.644L177.014,150.396L177.014,175.729L202.347,163.977L202.347,138.644Z" transform="matrix(0.731033,0,0,1,236.809,-14.7747)" style="fill:#ff246d;stroke:#000;stroke-width:1.14px"/></g><g><path d="M202.347,138.644L177.014,150.396L177.014,175.729L202.347,163.977L202.347,138.644Z" transform="matrix(0.731033,0,0,1,310.752,-61.8986)" style="fill:#ff24ff;stroke:#000;stroke-width:1.14px"/></g><g><path d="M202.347,138.644L177.014,150.396L177.014,175.729L202.347,163.977L202.347,138.644Z" transform="matrix(0.731033,0,0,1,181.336,121.566)" style="fill:#ffb600;stroke:#000;stroke-width:1.14px"/></g><g><path d="M202.347,138.644L177.014,150.396L177.014,175.729L202.347,163.977L202.347,138.644Z" transform="matrix(0.731033,0,0,1,255.328,74.2444)" style="fill:#ffb68e;stroke:#000;stroke-width:1.14px"/></g><g><path d="M202.347,138.644L177.014,150.396L177.014,175.729L202.347,163.977L202.347,138.644Z" transform="matrix(0.731033,0,0,1,218.374,97.9611)" style="fill:#ffb648;stroke:#000;stroke-width:1.14px"/></g><g><path d="M202.347,138.644L177.014,150.396L177.014,175.729L202.347,163.977L202.347,138.644Z" transform="matrix(0.731033,0,0,1,292.233,50.9011)" style="fill:#ffb6da;stroke:#000;stroke-width:1.14px"/></g><g><path d="M202.347,138.644L177.014,150.396L177.014,175.729L202.347,163.977L202.347,138.644Z" transform="matrix(0.731033,0,0,1,199.855,109.714)" style="fill:#ffb624;stroke:#000;stroke-width:1.14px"/></g><g><path d="M202.347,138.644L177.014,150.396L177.014,175.729L202.347,163.977L202.347,138.644Z" transform="matrix(0.731033,0,0,1,273.847,62.4918)" style="fill:#ffb6b6;stroke:#000;stroke-width:1.14px"/></g><g><path d="M202.347,138.644L177.014,150.396L177.014,175.729L202.347,163.977L202.347,138.644Z" transform="matrix(0.731033,0,0,1,236.809,86.0964)" style="fill:#ffb66d;stroke:#000;stroke-width:1.14px"/></g><g><path d="M202.347,138.644L177.014,150.396L177.014,175.729L202.347,163.977L202.347,138.644Z" transform="matrix(0.731033,0,0,1,310.752,38.9725)" style="fill:#ffb6ff;stroke:#000;stroke-width:1.14px"/></g><g><path d="M202.347,138.644L177.014,150.396L177.014,175.729L202.347,163.977L202.347,138.644Z" transform="matrix(0.731033,0,0,1,181.336,71.0422)" style="fill:#ff6d00;stroke:#000;stroke-width:1.14px"/></g><g><path d="M202.347,138.644L177.014,150.396L177.014,175.729L202.347,163.977L202.347,138.644Z" transform="matrix(0.731033,0,0,1,255.328,23.721)" style="fill:#ff6d8e;stroke:#000;stroke-width:1.14px"/></g><g><path d="M202.347,138.644L177.014,150.396L177.014,175.729L202.347,163.977L202.347,138.644Z" transform="matrix(0.731033,0,0,1,218.374,47.4376)" style="fill:#ff6d48;stroke:#000;stroke-width:1.14px"/></g><g><path d="M202.347,138.644L177.014,150.396L177.014,175.729L202.347,163.977L202.347,138.644Z" transform="matrix(0.731033,0,0,1,292.233,0.377653)" style="fill:#ff6dda;stroke:#000;stroke-width:1.14px"/></g><g><path d="M202.347,138.644L177.014,150.396L177.014,175.729L202.347,163.977L202.347,138.644Z" transform="matrix(0.731033,0,0,1,199.855,59.1902)" style="fill:#ff6d24;stroke:#000;stroke-width:1.14px"/></g><g><path d="M202.347,138.644L177.014,150.396L177.014,175.729L202.347,163.977L202.347,138.644Z" transform="matrix(0.731033,0,0,1,273.847,11.9684)" style="fill:#ff6db6;stroke:#000;stroke-width:1.14px"/></g><g><path d="M202.347,138.644L177.014,150.396L177.014,175.729L202.347,163.977L202.347,138.644Z" transform="matrix(0.731033,0,0,1,236.809,35.573)" style="fill:#ff6d6d;stroke:#000;stroke-width:1.14px"/></g><g><path d="M202.347,138.644L177.014,150.396L177.014,175.729L202.347,163.977L202.347,138.644Z" transform="matrix(0.731033,0,0,1,310.752,-11.5509)" style="fill:#ff6dff;stroke:#000;stroke-width:1.14px"/></g><g><path d="M202.347,138.644L177.014,150.396L177.014,175.729L202.347,163.977L202.347,138.644Z" transform="matrix(0.731033,0,0,1,181.336,171.913)" style="fill:#ff0;stroke:#000;stroke-width:1.14px"/></g><g><path d="M202.347,138.644L177.014,150.396L177.014,175.729L202.347,163.977L202.347,138.644Z" transform="matrix(0.731033,0,0,1,255.328,124.592)" style="fill:#ffff91;stroke:#000;stroke-width:1.14px"/></g><g><path d="M202.347,138.644L177.014,150.396L177.014,175.729L202.347,163.977L202.347,138.644Z" transform="matrix(0.731033,0,0,1,218.374,148.309)" style="fill:#ffff49;stroke:#000;stroke-width:1.14px"/></g><g><path d="M202.347,138.644L177.014,150.396L177.014,175.729L202.347,163.977L202.347,138.644Z" transform="matrix(0.731033,0,0,1,292.233,101.249)" style="fill:#ffffda;stroke:#000;stroke-width:1.14px"/></g><g><path d="M202.347,138.644L177.014,150.396L177.014,175.729L202.347,163.977L202.347,138.644Z" transform="matrix(0.731033,0,0,1,199.855,160.061)" style="fill:#ffff24;stroke:#000;stroke-width:1.14px"/></g><g><path d="M202.347,138.644L177.014,150.396L177.014,175.729L202.347,163.977L202.347,138.644Z" transform="matrix(0.731033,0,0,1,273.847,112.839)" style="fill:#ffffb6;stroke:#000;stroke-width:1.14px"/></g><g><path d="M202.347,138.644L177.014,150.396L177.014,175.729L202.347,163.977L202.347,138.644Z" transform="matrix(0.731033,0,0,1,236.809,136.444)" style="fill:#ffff6d;stroke:#000;stroke-width:1.14px"/></g><g><path d="M202.347,138.644L177.014,150.396L177.014,175.729L202.347,163.977L202.347,138.644Z" transform="matrix(0.731033,0,0,1,310.752,89.3202)" style="fill:#fff;stroke:#000;stroke-width:1.14px"/></g><path d="M458.675,51.612L255.798,51.612L108.019,145.724L108.019,348.388L310.683,348.388L458.675,253.297L458.675,51.612Z" style="fill:#ffdab6;mix-blend-mode:hue"/><g id="axes"><g><g><path d="M74.974,153.919L74.974,93.741" transform="matrix(1,0,0,1,-0.00640404,-50) matrix(6.12323e-17,-1,1,6.12323e-17,-52.4094,270.607)" style="fill:none;stroke:#000;stroke-width:1px"/></g><g><path d="M74.974,153.919L74.974,93.741" transform="matrix(1,0,0,1,-0.00640404,-50) matrix(0,-1,1,0,-52.4094,473.361)" style="fill:none;stroke:#000;stroke-width:1px"/></g><g><path d="M80.439,171.077L85.905,190.975L74.974,190.975L80.439,171.077Z" transform="matrix(1,0,0,1,-0.00640404,-50) matrix(-1,-1.22465e-16,1.22465e-16,-1,151.86,569.465)" style="fill:#0f0"/></g><g><path d="M80.439,171.077L85.905,190.975L74.974,190.975L80.439,171.077Z" transform="matrix(1,0,0,1,-0.00640404,-50) matrix(1,0,0,1,-9.01877,24.5561)" style="fill:#0f0"/></g><g><path d="M94.871,123.83L257.74,123.83" transform="matrix(1,0,0,1,-0.00640404,-50) matrix(6.21256e-17,-1.01459,1,6.12323e-17,-52.4094,477.765)" style="fill:none;stroke:#0f0;stroke-width:.99px"/></g></g><g><g><path d="M80.439,171.077L85.905,190.975L74.974,190.975L80.439,171.077Z" transform="matrix(1,0,0,1,-0.00640404,-50) matrix(0.547017,0.837121,-0.837121,0.547017,240.244,-7.07818) matrix(-1,-1.22465e-16,1.22465e-16,-1,157.286,422.965)" style="fill:#0d28f2"/></g><g><path d="M80.439,171.077L85.905,190.975L74.974,190.975L80.439,171.077Z" transform="matrix(1,0,0,1,-0.00640404,-50) matrix(0.547017,0.837121,-0.837121,0.547017,240.244,-7.07818) matrix(1,0,0,1,-4.41699,-88.72)" style="fill:#0d28f2"/></g><g><path d="M94.871,123.83L257.74,123.83" transform="matrix(1,0,0,1,-0.00640404,-50) matrix(0.547017,0.837121,-0.837121,0.547017,240.244,-7.07818) matrix(6.41412e-17,-0.795906,1.01308,1.05301e-16,-49.3679,307.392)" style="fill:none;stroke:#0d28f2;stroke-width:1.1px"/></g><g><path d="M74.974,153.919L74.974,93.741" transform="matrix(1,0,0,1,-0.00640404,-50) matrix(0.547017,0.837121,-0.837121,0.547017,240.244,-7.07818) matrix(-0.837121,-0.547017,0.547017,-0.837121,67.9116,231.828)" style="fill:none;stroke:#000;stroke-width:1px"/></g></g><g><g><path d="M74.974,153.919L74.974,93.741" transform="matrix(1,0,0,1,-0.00640404,-50) matrix(1,0,0,1,33.0393,0) matrix(1,0,0,1,0,30.6692)" style="fill:none;stroke:#fff;stroke-opacity:.54902;stroke-width:8.33px"/></g><g><path d="M74.974,153.919L74.974,93.741" transform="matrix(1,0,0,1,-0.00640404,-50) matrix(1,0,0,1,33.0393,0) matrix(1,0,0,1,202.664,30.6692)" style="fill:none;stroke:#fff;stroke-opacity:.54902;stroke-width:8.33px"/></g><g><path d="M80.439,171.077L85.905,190.975L74.974,190.975L80.439,171.077Z" transform="matrix(1,0,0,1,-0.00640404,-50) matrix(1,0,0,1,33.0393,0) matrix(6.12323e-17,-1,1,6.12323e-17,-96.1034,234.938)" style="fill:#f20d0d;stroke:#fff;stroke-opacity:.54902;stroke-width:8.33px"/></g><g><path d="M80.439,171.077L85.905,190.975L74.974,190.975L80.439,171.077Z" transform="matrix(1,0,0,1,-0.00640404,-50) matrix(1,0,0,1,33.0393,0) matrix(6.12323e-17,1,-1,6.12323e-17,448.715,74.0599)" style="fill:#f20d0d;stroke:#fff;stroke-opacity:.54902;stroke-width:8.33px"/></g><g><path d="M94.871,123.83L257.74,123.83" transform="matrix(1,0,0,1,-0.00640404,-50) matrix(1,0,0,1,33.0393,0) matrix(1,0,0,1,0,30.6692)" style="fill:none;stroke:#fff;stroke-opacity:.54902;stroke-width:8.33px"/></g></g><g><g><path d="M74.974,153.919L74.974,93.741" transform="matrix(1,0,0,1,-0.00640404,-50) matrix(1,0,0,1,33.0393,0) matrix(1,0,0,1,0,30.6692)" style="fill:none;stroke:#fff;stroke-width:3.75px"/></g><g><path d="M74.974,153.919L74.974,93.741" transform="matrix(1,0,0,1,-0.00640404,-50) matrix(1,0,0,1,33.0393,0) matrix(1,0,0,1,202.664,30.6692)" style="fill:none;stroke:#fff;stroke-width:3.75px"/></g><g><path d="M80.439,171.077L85.905,190.975L74.974,190.975L80.439,171.077Z" transform="matrix(1,0,0,1,-0.00640404,-50) matrix(1,0,0,1,33.0393,0) matrix(6.12323e-17,-1,1,6.12323e-17,-96.1034,234.938)" style="fill:#f20d0d;stroke:#fff;stroke-width:3.75px"/></g><g><path d="M80.439,171.077L85.905,190.975L74.974,190.975L80.439,171.077Z" transform="matrix(1,0,0,1,-0.00640404,-50) matrix(1,0,0,1,33.0393,0) matrix(6.12323e-17,1,-1,6.12323e-17,448.715,74.0599)" style="fill:#f20d0d;stroke:#fff;stroke-width:3.75px"/></g><g><path d="M94.871,123.83L257.74,123.83" transform="matrix(1,0,0,1,-0.00640404,-50) matrix(1,0,0,1,33.0393,0) matrix(1,0,0,1,0,30.6692)" style="fill:none;stroke:#fff;stroke-width:3.75px"/></g></g><g><g><path d="M74.974,153.919L74.974,93.741" transform="matrix(1,0,0,1,-0.00640404,-50) matrix(1,0,0,1,33.0393,0) matrix(1,0,0,1,0,30.6692)" style="fill:none;stroke:#000;stroke-width:1px"/></g><g><path d="M74.974,153.919L74.974,93.741" transform="matrix(1,0,0,1,-0.00640404,-50) matrix(1,0,0,1,33.0393,0) matrix(1,0,0,1,202.664,30.6692)" style="fill:none;stroke:#000;stroke-width:1px"/></g><g><path d="M80.439,171.077L85.905,190.975L74.974,190.975L80.439,171.077Z" transform="matrix(1,0,0,1,-0.00640404,-50) matrix(1,0,0,1,33.0393,0) matrix(6.12323e-17,-1,1,6.12323e-17,-96.1034,234.938)" style="fill:#f20d0d"/></g><g><path d="M80.439,171.077L85.905,190.975L74.974,190.975L80.439,171.077Z" transform="matrix(1,0,0,1,-0.00640404,-50) matrix(1,0,0,1,33.0393,0) matrix(6.12323e-17,1,-1,6.12323e-17,448.715,74.0599)" style="fill:#f20d0d"/></g><g><path d="M94.871,123.83L257.74,123.83" transform="matrix(1,0,0,1,-0.00640404,-50) matrix(1,0,0,1,33.0393,0) matrix(1,0,0,1,0,30.6692)" style="fill:none;stroke:#f20d0d;stroke-width:1px"/></g></g></g></svg>